<svg xmlns="http://www.w3.org/2000/svg" viewBox="0 0 32 32"><title>icon 2gis</title><defs><linearGradient id="a" gradientUnits="userSpaceOnUse" x1="31" y1="199.28" x2="31" y2="177.62" gradientTransform="translate(-15.56 -172.86)"><stop stop-color="#1063b0" offset="0"/><stop stop-color="#0cbde5" offset="1"/></linearGradient></defs><path d="M32 27.538c0 2.181-1.792 3.944-3.999 3.944H4c-2.208 0-4-1.762-4-3.944V3.934C0 1.763 1.792 0 3.999 0H28c2.208 0 4 1.763 4 3.934z" fill="#fefefe"/><path d="M4.596 4.492c1.265.269 22.94 3.864 27.12 4.551V3.934C31.717 1.763 29.926 0 27.719 0H3.725a4.006 4.006 0 0 0-2.713 1.046c.648 2.31 1.64 3.037 3.584 3.446" fill="#ffc72e"/><path d="M6.904 29.4l18.961-3.844s5.841-1.095 5.841-7.13c0-4.034.02-6.026.03-6.903v-.617l-29.71-4.93zm-1.498-2.2C5.335 26.82 1.903 10.677.273 2.988A3.881 3.881 0 0 0 0 4.412v23.604c0 .986.375 1.892.982 2.58.84-.18 1.64-.349 2.298-.478 1.964-.389 2.227-2.34 2.126-2.918" fill="#4fb74e"/><path d="M2.025 31.622a4.056 4.056 0 0 0 1.71.378h2.39l-.223-1.125zm24.67-5.199L7.086 30.327l.284 1.384h20.277c2.217 0 4.009-1.763 4.009-3.934v-4.87c-1.64 2.888-4.96 3.516-4.96 3.516" fill="#6dbf63"/><path d="M13.808 28.444V27.08c0-6.265-.445-9.422-3.482-9.7H8.058l-.324-1.007c-.658-2.36-.658-3.366-.648-4.531v-.379c0-4.67 3.878-8.475 8.636-8.475 4.727 0 8.574 3.735 8.635 8.356.07.558.182 2.28-.648 5.05l-.334.985h-2.248c-2.986.359-3.472 3.556-3.472 9.89v.568z" fill="#fefefe"/><path d="M8.44 11.32c0 1.52.27 3.39.65 4.7h1.12c5.02.4 4.85 5.92 4.85 11.53 0-.01.75-.07 1.14-.13 0-5.59.02-10.9 4.86-11.4h1.14c.38-1.31.66-3.18.66-4.7 0-3.94-3.26-7.18-7.21-7.18s-7.21 3.24-7.21 7.18" fill="url(#a)" transform="scale(1.01234 .99595)"/></svg>