<svg xmlns="http://www.w3.org/2000/svg" viewBox="284.5 -49.2 458 264"><title>background</title><path fill="none" d="M202-220h582v402H202z"/><g fill="#fff"><title>Layer 1</title><path d="M734.9 109.9L683.2-17.4c-1.4-3.6-7.8-17.9-23.7-25.5-8.8-4.2-23.5-7.7-43.8-.6-26.1 9.2-71.4 12.4-102.2 12.4-26.6 0-78.4-4.4-102.5-12.5-10.8-3.6-20.9-4.7-30.3-3.2-8.3 1.3-15.7 4.6-22.2 9.6-9.6 7.6-13.7 16.9-14.8 19.9l-51.6 127.2c-2.2 4.6-10.6 25-3.1 44.9 3.2 8.5 10.5 20.1 27.4 27.1 19.1 8 48.1 16 79.7 21.9 27.2 5.2 69.7 11.3 117.5 11.3s90.3-6.2 117.5-11.3c31.5-6 60.6-14 79.7-21.9 16.9-7 24.2-18.6 27.4-27.1 7.3-19.9-1.2-40.3-3.3-44.9zm-31.4 32c-.4 1-1.4 3.6-7 6-16.6 6.9-43.7 14.3-72.4 19.8-25.7 4.9-65.7 10.7-110.6 10.7-44.9 0-84.9-5.8-110.6-10.7-28.7-5.4-55.8-12.8-72.4-19.8-5.6-2.3-6.6-4.9-7-5.9-2-5.1.5-13.3 2-16.6.2-.5.3-.7.5-1.2L378-3.7l.3-.9s1.2-2.2 3.1-3.7c3.7-3 9.7-3.1 17.9-.4 1.3.4 2.6.9 4 1.3l6.5 78.5c.5 4.6 5.4 7.2 9.5 5.1l11.4-6.7c1-.5 2.2.1 2.4 1.1l11.3 54.6c.7 3.2 5 3.6 6.4.7 2.9-6.3 4.8-22.2 5.5-22.2.6 0 13.9 2.3 22.9 2.6 4.9.2 6.1-7 1.6-9.1l-23.2-11.1c-.9-.4-1.6-1.4-1.6-2.4l-2.1-40.6c-.1-2.1-2.2-3.6-4.2-3.1l-10.9 2.9c-1.2.3-2.3-.9-1.9-2.1l14.5-39.3c23 2.8 46.5 4.1 62 4.1 17.2 0 76.1-1 114.4-14.5 5.2-1.8 12.3-3.3 16.8-.3 2.4 1.6 3.6 4 4 4.7.1.3.1.1.3.6L700.8 124l.6 1.2c1.3 2.7 4.1 11.4 2.1 16.7z"/></g></svg>