<svg xmlns="http://www.w3.org/2000/svg" viewBox="248 -234 512 512"><g fill="#74a3c7"><path d="M696 79.5v-270.8c0-14.5-11.1-25.6-25.6-25.6H559.5c0-9.4-7.7-17.1-17.1-17.1H422.9c-9.4 0-17.1 7.7-17.1 17.1H294.9c-14.5 0-25.6 11.1-25.6 25.6v443.7c0 14.5 11.1 25.6 25.6 25.6h332.8c61.4 0 110.9-49.5 110.9-110.9.1-35.7-16.6-67.3-42.6-87.6zm-25.6-279.4c5.1 0 8.5 3.4 8.5 8.5v260c-5.4-2.8-11.1-5.2-17.1-7.1v-227.2c0-9.4-7.7-17.1-17.1-17.1h-85.3v-17.1h111zM516.9 170.5v.5c.7 20.5 6.9 39.6 17.3 55.8H320.5v-392.5h85.3c0 9.4 7.7 17.1 17.1 17.1h119.5c9.4 0 17.1-7.7 17.1-17.1h85.3V57.4c-1.2-.2-2.4-.3-3.6-.5h-.3c-.9-.1-1.9-.2-2.8-.3-.2 0-.5 0-.7-.1-.8-.1-1.6-.1-2.4-.2-.3 0-.6 0-.9-.1-.8 0-1.6-.1-2.4-.1h-4.1c-61.4 0-110.9 49.5-110.9 110.9.1 1.2.1 2.4.2 3.5zm-94-387.4h119.5v51.1H422.9v-51.1zm-128 477.8c-5.1 0-8.5-3.4-8.5-8.5v-443.7c0-5.1 3.4-8.5 8.5-8.5h110.9v17.1h-85.3c-9.4 0-17.1 7.7-17.1 17.1v392.5c0 9.4 7.7 17.1 17.1 17.1h227c6.2 6.5 13.2 12.2 20.9 17.1l-273.5-.2zm332.8 0c-27.1 0-51.5-11.4-68.5-29.6-.3-.7-.8-1.4-1.4-2-14.4-16-22.8-36.5-23.8-57.9v-.2c-.1-1.4-.1-2.8-.1-4.2 0-52.1 41.8-93.9 93.9-93.9 1.1 0 2.2 0 3.3.1h1c.7 0 1.5.1 2.2.1.7 0 1.3.1 2 .2h.3c4.8.5 9.5 1.4 14.3 3 1 .3 2 .4 3 .3 9 2.6 17.6 6.6 25.9 11.9 25.3 16.8 41.9 45.5 41.9 78.3-.1 52.1-41.9 93.9-94 93.9z"/><path d="M684.1 118.4c-4.3-3.4-9.4-2.6-11.9 1.7l-47.8 68.3-33.4-27.3c-3.4-3.4-9.4-2.6-11.9.9-3.4 3.4-2.6 9.4.9 11.9l41 33.3c.9.9 3.4 1.7 5.1 1.7 0 0 .9 0 .9.9 2.6 0 4.3-1.7 6-3.4l52.9-75.9c3.3-4.4 2.4-9.5-1.8-12.1zM550.9 47.6c15.8 0 29.2-10.9 33-25.6h13c12.8 0 22.2-9.4 23-22.2v-33.3c0-12.8-10.2-22.2-22.2-22.2h-18.2l-33-46.1c-5.1-7.7-13.7-11.9-23-11.9h-36.9c-1.2-.6-2.5-.9-4-.9s-2.9.3-4 .9h-36.9c-9.4 0-17.9 4.3-23 11.9l-33 46.1h-17.3c-12.8 0-22.2 10.2-22.2 22.2V-.2c0 12.8 9.4 22.2 22.2 22.2h13c3.8 14.7 17.2 25.6 33 25.6s29.2-10.9 33-25.6h70.4c3.9 14.7 17.3 25.6 33.1 25.6zm0-17.1c-9.4 0-17.1-7.7-17.1-17.1s7.7-17.1 17.1-17.1c9.4 0 17.1 7.7 17.1 17.1s-7.7 17.1-17.1 17.1zM532.2-93.2l26.7 37.5h-67.7v-41.8h31.6c4.2 0 7.7 1.7 9.4 4.3zm-100.7 0c2.6-2.6 6-4.3 9.4-4.3h33.3v41.8h-68.5l25.8-37.5zM414.4 30.5c-9.4 0-17.1-7.7-17.1-17.1s7.7-17 17.1-17 17.1 7.7 17.1 17.1-7.7 17-17.1 17zm.9-51.2h-.9c-15.8 0-29.2 10.9-33 25.6h-13c-2.6 0-5.1-2.6-5.1-5.1v-33.3c0-2.6 2.6-5.1 5.1-5.1H385c1.1.5 2.4.9 3.8.9h187.7c1.4 0 2.7-.3 3.8-.9h17.5c2.6 0 5.1 2.6 5.1 5.1V-.2c0 2.6-2.6 5.1-5.1 5.1h-13.7c-4.3-14.5-15.4-25.6-31.6-25.6h-1.7c-15.8 0-29.2 10.9-33 25.6h-69.4c-4.1-14.5-16.9-25.6-33.1-25.6zm67.4 111h-128c-5.1 0-8.5 3.4-8.5 8.5s3.4 8.5 8.5 8.5h128c5.1 0 8.5-3.4 8.5-8.5s-3.4-8.5-8.5-8.5zm0 42.6h-128c-5.1 0-8.5 3.4-8.5 8.5s3.4 8.5 8.5 8.5h128c5.1 0 8.5-3.4 8.5-8.5s-3.4-8.5-8.5-8.5zm0 42.7h-128c-5.1 0-8.5 3.4-8.5 8.5s3.4 8.5 8.5 8.5h128c5.1 0 8.5-3.4 8.5-8.5s-3.4-8.5-8.5-8.5z"/></g></svg>