<svg xmlns="http://www.w3.org/2000/svg" viewBox="248 -234 512 512"><path d="M566.2-234H258.7v512h384v-435.5L566.2-234zm1.8 32l42.7 42.7H568V-202zm53.3 458.7H280v-469.3h266.7v74.7h74.7l-.1 394.6z" fill="#74a3c7"/><path d="M568 139.3h-64c-5.9 0-10.7 4.8-10.7 10.7s4.8 10.7 10.7 10.7h64c5.9 0 10.7-4.8 10.7-10.7s-4.8-10.7-10.7-10.7zM568-42H333.3c-5.9 0-10.7 4.8-10.7 10.7s4.8 10.7 10.7 10.7H568c5.9 0 10.7-4.8 10.7-10.7S573.9-42 568-42zm0 64H333.3c-5.9 0-10.7 4.8-10.7 10.7 0 5.9 4.8 10.7 10.7 10.7H568c5.9 0 10.7-4.8 10.7-10.7 0-5.9-4.8-10.7-10.7-10.7zM450.7-106H333.3c-5.9 0-10.7 4.8-10.7 10.7s4.8 10.7 10.7 10.7h117.3c5.9 0 10.7-4.8 10.7-10.7s-4.7-10.7-10.6-10.7zM376 86c-29.5 0-53.3 23.9-53.3 53.3 0 17.4 8.4 32.9 21.3 42.7v53.3l32-10.7 32 10.7V182c13-9.7 21.3-25.2 21.3-42.7 0-29.4-23.9-53.3-53.3-53.3zm10.7 119.7l-3.9-1.3-6.7-2.3-6.8 2.3-3.9 1.3v-14.1c3.4.7 7 1.1 10.7 1.1 3.7 0 7.2-.4 10.7-1.1v14.1zM376 171.3c-17.6 0-32-14.4-32-32 0-17.7 14.4-32 32-32s32 14.3 32 32-14.4 32-32 32zM749.3-106c0-23.6-19.1-42.7-42.7-42.7s-42.7 19.1-42.7 42.7v288h13.2L664 228.2l42.7 28.4 42.7-28.4-13.3-46.2h13.3v-288zm-42.6 337l-17.9-11.9 10.6-37.1h14.5l10.6 37.1-17.8 11.9zm21.3-70.3h-42.7V-106c0-11.8 9.6-21.3 21.3-21.3 11.8 0 21.3 9.6 21.3 21.3v266.7z" fill="#74a3c7"/><path d="M376 128.7c-5.9 0-10.7 4.8-10.7 10.7 0 5.9 4.8 10.7 10.7 10.7 5.9 0 10.7-4.8 10.7-10.7 0-6-4.8-10.7-10.7-10.7z" fill="#74a3c7"/></svg>