<svg xmlns="http://www.w3.org/2000/svg" viewBox="55 -16 126 76"><path fill="#0066CB" d="M118 49.8c7.6-6.9 12.3-16.8 12.3-27.9 0-11-4.7-21-12.3-27.8-6.9-6.3-15.9-9.7-25.2-9.7C72-15.7 55.2 1.1 55.2 21.9S72 59.5 92.8 59.5c9.3 0 18.3-3.5 25.2-9.7"/><path fill="#0066CB" d="M118 49.8c7.6-6.9 12.3-16.8 12.3-27.9 0-11-4.7-21-12.3-27.8"/><path fill="none" stroke="#0066CB" stroke-width=".31" d="M118 49.8c7.6-6.9 12.3-16.8 12.3-27.9 0-11-4.7-21-12.3-27.8"/><path fill="#CC0001" d="M143.3-15.7c-9.7 0-18.6 3.7-25.3 9.7-1.4 1.2-2.6 2.6-3.8 4h7.6c1.1 1.2 2 2.6 2.8 4h-13.3c-.8 1.3-1.5 2.6-2.2 4h17.7c.6 1.3 1.1 2.6 1.6 4h-20.8c-.5 1.3-.8 2.6-1.1 4h23c.6 2.6.8 5.2.8 8 0 4.2-.7 8.2-2 11.9h-20.8c.4 1.4.9 2.7 1.6 4h17.7c-.7 1.4-1.3 2.7-2.2 4h-13.3c.8 1.4 1.8 2.7 2.9 4h7.6c-1.2 1.4-2.4 2.7-3.8 4 6.6 6 15.5 9.7 25.3 9.7 20.7 0 37.5-16.8 37.5-37.6 0-20.9-16.8-37.7-37.5-37.7"/><path fill="#231F20" d="M86.9 32.3h-4.7L85 17.8l-6.4 14.6h-3.9l-.8-14.6-3.1 14.6h-4.3l3.6-19h7.4l.1 11.8 5.1-11.8h7.9l-3.7 18.9m52.3-.2c-1.3.4-2.3.5-3.4.5-2.4 0-3.7-1.2-3.7-3.4 0-.4 0-.9.1-1.4l.3-1.5.2-1.2 2.2-11.8h4.6l-.7 3.6h2.4l-.7 3.8h-2.4L137 27c-.1.3-.1.5-.1.6 0 .8.4 1.2 1.6 1.2.6 0 .9 0 1.3-.1l-.6 3.4m-18.6-10.3c0 2 1.1 3.3 3.6 4.3 1.9.8 2.2 1 2.2 1.7 0 1-.8 1.4-2.7 1.4-1.4 0-2.7-.2-4.2-.6l-.6 3.6h.2l.9.2c.3 0 .7.1 1.2.1 1.1.1 2 .1 2.6.1 5 0 7.3-1.6 7.3-5.2 0-2.1-1-3.4-3.3-4.3-2-.8-2.2-1-2.2-1.7 0-.8.8-1.3 2.3-1.3.9 0 2.2.1 3.4.2l.7-3.6c-1.2-.2-3.1-.3-4.1-.3-5.5.1-7.3 2.5-7.3 5.4m-21.7 3.6c-.4 0-.7-.1-1.1-.1-2.6 0-4 .8-4 2.4 0 1 .7 1.6 1.7 1.6 1.9 0 3.3-1.5 3.4-3.9zm3.2 6.9h-3.9l.1-1.6c-1.2 1.3-2.8 1.9-4.9 1.9-2.6 0-4.3-1.7-4.3-4.2 0-3.8 3-6 8.2-6 .6 0 1.2 0 1.9.1.2-.5.2-.7.2-1 0-1-.8-1.4-3-1.4-1.3 0-2.8.2-3.9.4l-.6.2-.4.1.7-3.5c2.3-.6 3.9-.8 5.6-.8 4 0 6.1 1.6 6.1 4.5 0 .8-.1 1.3-.4 3.1l-.9 5.5-.2 1-.1.8-.1.5-.1.4m13.1-9.5c0-.3.1-.6.1-.8 0-1.3-.8-2-2.2-2-1.5 0-2.6 1-3 2.8h5.1zm2.2 9.2c-1.6.4-3.2.6-4.8.6-5.3 0-7.9-2.4-7.9-6.9 0-5.3 3.5-9.2 8.2-9.2 3.9 0 6.3 2.2 6.3 5.6 0 1.1-.2 2.3-.6 3.8h-9.3c-.1.2-.1.3-.1.5 0 1.8 1.4 2.7 4.1 2.7 1.7 0 3.2-.3 4.9-1l-.8 3.9m45.2-8.6c0-1.6-.7-3.2-2.6-3.2-2.4 0-3.9 2.8-3.9 5.3 0 2.1 1 3.5 2.7 3.5 1 0 3.2-1.4 3.6-3.8.1-.4.2-1.1.2-1.8zm4.7 1.9c-.7 5.2-4.3 7.4-9.1 7.4-5.3 0-7.4-3.2-7.4-7.1 0-5.5 3.6-9.2 9.2-9.2 4.9 0 7.4 3.1 7.4 7 0 .9 0 1-.1 1.9"/><path fill="#FFF" d="M88.1 31.3h-4.7l2.8-14.6-6.4 14.6h-4.2l-.8-14.6L72 31.3h-4.2l3.6-19h7.3L79 24l5.2-11.8h7.6l-3.7 19.1m52.2-.3c-1.3.3-2.3.5-3.4.5-2.4 0-3.7-1.2-3.7-3.4 0-.4.1-.9.1-1.4l.3-1.5.2-1.2 2.2-11.8h4.6l-.7 3.6h2.4l-.7 3.8h-2.4l-1.2 6.5c-.1.3-.1.5-.1.6 0 .8.5 1.1 1.6 1.1.5 0 .9 0 1.2-.1l-.4 3.3"/><path fill="#231F20" d="M152.4 20.3l-.1-.5.9-2.4h-.3c-.3-.1-.4-.1-.4-.1h-.4c-1.6 0-2.6.7-4.1 2.5l.5-2.8h-4.9l-2.8 15.5h4.6c.6-3.5.9-5.6 1.3-7.2.6-2.8 2.7-4.1 4.2-3.8.2 0 .3 0 .5.1l.3.1.7-1.4"/><path fill="#FFF" d="M154 15.8c-.4-.2-.4-.2-.5-.2-.2-.1-.4-.1-.4-.1h-.5c-1.5 0-2.6.7-4.1 2.5l.4-2.4h-4.2l-2.8 15.5h4.7c1.7-9.5 2.4-11.1 4.6-11.1h.6l.6.1 1.6-4.3m-32.2 4.8c0 2 1.1 3.3 3.6 4.3 1.9.8 2.2 1 2.2 1.7 0 1-.8 1.4-2.7 1.4-1.5 0-2.7-.2-4.2-.6L120 31h.2l.8.2c.3.1.7.1 1.3.1 1.1.1 2 .1 2.6.1 5 0 7.3-1.6 7.3-5.2 0-2.1-.9-3.4-3.4-4.3-2-.8-2.2-1-2.2-1.7 0-.8.8-1.3 2.3-1.3.9 0 2.2.1 3.4.2l.7-3.6c-1.2-.2-3.1-.3-4.2-.3-5.2.2-7 2.6-7 5.4m-21.9 3.7c-.4 0-.7-.1-1.1-.1-2.6 0-4 .8-4 2.4 0 1 .6 1.6 1.7 1.6 1.9.1 3.3-1.6 3.4-3.9zm3.4 7h-3.9l.1-1.6c-1.2 1.3-2.8 1.9-4.9 1.9-2.5 0-4.2-1.7-4.2-4.2 0-3.8 3-6 8.2-6 .5 0 1.2 0 1.9.1.1-.5.2-.7.2-1 0-1-.8-1.4-3-1.4-1.3 0-2.8.2-3.9.4l-.7.2-.4.1.6-3.5c2.3-.6 3.9-.8 5.6-.8 4 0 6.1 1.6 6.1 4.5 0 .8-.1 1.3-.3 3.1l-1 5.5-.2 1-.1.8-.1.5v.4m12.9-9.5V21c0-1.3-.8-2-2.2-2-1.5 0-2.6 1-3 2.8h5.2zm2.4 9.1c-1.6.4-3.1.6-4.8.6-5.3 0-8-2.4-8-6.9 0-5.3 3.5-9.2 8.2-9.2 3.9 0 6.3 2.2 6.3 5.6 0 1.1-.2 2.3-.6 3.8h-9.3c-.1.2-.1.3-.1.5 0 1.8 1.4 2.7 4.1 2.7 1.7 0 3.2-.3 4.9-1l-.7 3.9m45.1-8.6c0-1.6-.7-3.2-2.6-3.2-2.4 0-3.9 2.8-3.9 5.3 0 2.1 1 3.5 2.7 3.5 1 0 3.2-1.4 3.6-3.8.1-.7.2-1.3.2-1.8zm4.9 2c-.7 5.2-4.3 7.4-9.1 7.4-5.3 0-7.4-3.2-7.4-7.1 0-5.5 3.6-9.2 9.2-9.2 4.9 0 7.4 3.1 7.4 7 0 .9 0 .9-.1 1.9"/></svg>