<svg xmlns="http://www.w3.org/2000/svg" viewBox="440 -42 128 128"><path d="M555.1 54.6l-.5-.1c-6.6-1.8-8.9-3.5-11.8-4.6-10.4-4-13.2-6.9-13.9-8.2 0 0 0-.1-.1-.1l-.1-9.1c5.6-7.5 9.6-16.8 9.6-26.5 0 0 3.8-16.1-5.3-31.2v-.1c-2-3.3-4.5-6.5-7.8-9.5-3.5-3.1-12-7.1-22.4-7.1-7.1 0-15 1.9-22.6 7.1C465.3-24.6 466.8 1 466.8 1s1 .3 2.9.5c-.1 1.5-.2 2.9-.2 4.4 0 9.7 4 19 9.6 26.5l-.1 9.1s0 .1-.1.1c-.7 1.4-3.4 4.2-13.9 8.2-2.9 1.1-5.2 2.8-11.8 4.6l-.5.1c-6 2-10.1 7.6-10.1 13.9V86h122.3V68.5c.2-6.3-3.8-11.9-9.8-13.9zm-24.5-73.3c1.5 3.3 2.5 7 2.9 10.8.1.6.1 1.2.2 1.8-.9-1.6-1.8-3-2.9-4.2-1.2-1.3-2.5-2.4-3.9-3.2 1.1-2.7 2.5-4.3 3.7-5.2zm-57.3 6.3c.8-3.9 1.9-7.4 3.4-10.3 1.7-3.4 3.9-6 6.6-7.8 6-4.1 12.6-6.2 19.6-6.2 9.1 0 16.3 3.5 18.8 5.7s4.6 4.8 6.3 7.5c-2.1 1.4-4.5 3.9-6.1 8-.9-.2-1.8-.2-2.7-.2-4 0-8.3 1.3-13.1 4.1-11.7 6.7-22.5 8.1-29.5 8.1-1.7 0-3.1-.1-4.4-.2.2-2.3.4-5.4 1.1-8.7zm18.3 93.1h-43.4V68.5c0-4 2.5-7.5 6.3-8.8l.3-.1c5-1.3 7.7-2.7 10-3.7.9-.4 1.6-.8 2.3-1 3.9-1.5 8.9-3.6 12.5-6.2l11.3 5.9 2-1.7 1.4 6.9-2.7 20.9zm-8.1-36l.3-.6c.1-.1.1-.3.2-.4l.4-1v-4.2c2.9 2.8 5.9 5.2 8.9 7l-3.3 2.8-6.5-3.6zm20.5 36h-7.1l2.4-18.7h9.4l2.7 18.7H504zM497.5 49l1.3-1.1c1.8.6 3.6.9 5.2.9 1.7 0 3.6-.4 5.5-1l1.1.9-1.6 8h-10l-1.5-7.7zm6.5-5.6c-2.2 0-5.1-1-8.2-2.8-3.4-2-6.9-5-9.9-8.4-7-7.9-11-17.5-11-26.3 0-1.4.1-2.7.2-4h1.5c7.8 0 19.5-1.6 32.1-8.8 4.2-2.4 7.7-3.4 10.5-3.4 6.7 0 9.8 5.7 11.6 10.9.6 1.8 1.4 3 2.2 3.8v1.5c0 8.8-4 18.4-11 26.3-3.1 3.5-6.5 6.4-9.9 8.4-3 1.8-5.9 2.8-8.1 2.8zm20.6 1.4l-6.4 3.3-3.4-2.9c2.9-1.7 5.9-4 8.7-6.8v4.2l.4 1c0 .1.1.2.2.4.2.3.4.6.5.8zm16.9 35.9h-16v-5.3h16v5.3zm18.3 0h-12.9V70h-8c0-1.5-1.2-2.7-2.7-2.7h-5.3c-1.5 0-2.7 1.2-2.7 2.7h-8v10.7h-3.4l-3-20.8 1.5-7.3 2.3 2 11.1-5.8c3.6 2.6 8.4 4.6 12.3 6.1.7.3 1.5.6 2.3 1 2.2 1.1 5 2.4 10 3.7l.3.1c3.8 1.3 6.3 4.8 6.3 8.8v12.2h-.1z"/></svg>