<svg xmlns="http://www.w3.org/2000/svg" viewBox="0 0 512.001 512.001"><path fill="#c21b23" d="M474.962 117.094l-80.056-80.056L235.88 179.284l6.465 90.373 90.372 6.464z"/><path d="M491.743 150.658l-130.4-130.401c-4.634-4.634-4.634-12.148 0-16.781 4.634-4.634 12.147-4.634 16.781 0l130.401 130.401c4.634 4.634 4.634 12.147 0 16.781-4.634 4.634-12.147 4.634-16.782 0z" fill="#ee3840"/><path fill="#ccc4c1" d="M188.018 297.133L11.746 473.404 0 512l38.597-11.746 176.27-176.27z"/><path d="M332.717 276.121l-96.837-96.837c-59.731-22.719-129.85-10.026-177.966 38.09l236.712 236.713c48.117-48.115 60.81-118.236 38.091-177.966z" fill="#ee3840"/></svg>