<svg xmlns="http://www.w3.org/2000/svg" viewBox="230 -218 480 480"><path fill="#74a3c7" d="M695.3-69.6c-10.5-11.9-25.5-18.7-41.4-18.7h-151c-37.1 0-72.2 14.2-98.8 40L233.7 116.8c-2.6 2.6-3.5 6.4-2.1 9.8 1.4 3.4 4.7 5.6 8.3 5.6h440.6c4.5 0 8.4-3.4 8.9-7.9l19.1-150.6c2.1-15.6-2.7-31.5-13.2-43.3zM299.5 114.3l59.2-57.4v57.4h-59.2zm77.2 0V39.4l58-56.2c18.4-17.8 42.6-27.6 68.2-27.6h64.9V29c0 3.1 1.6 5.9 4.1 7.6 2.6 1.7 5.8 1.9 8.6.6 16.2-7.5 34.6-8.6 51.6-3.2l23.6 7.5-9.2 72.8H376.7zM665.1-31.8L659 16.5l-60.9-60.9H654c3.3 0 6.3 1.4 8.4 3.8 2.1 2.4 3.1 5.6 2.7 8.8zm-79.3.6l46.5 46.5c-15.4-3.9-31.4-3.6-46.5.7v-47.2zm105 2.7l-18.1 142.8h-8L683-29.5c1.1-8.3-1.5-16.7-7.1-23s-13.5-9.9-21.9-9.9H503c-30.3 0-59 11.6-80.8 32.7l-148.5 144h-11.4L416.6-35.4c23.3-22.5 53.9-34.9 86.3-34.9h151c10.7 0 20.8 4.6 27.9 12.6 7 8 10.3 18.6 9 29.2z"/></svg>