<svg xmlns="http://www.w3.org/2000/svg" viewBox="8 7 32 32"><title>icon 2gis</title><path fill="#FEFEFE" d="M40 34.5c0 2.2-1.8 3.9-4 3.9H12c-2.2 0-4-1.8-4-3.9V10.9C8 8.8 9.8 7 12 7h24c2.2 0 4 1.8 4 3.9v23.6z"/><path fill="#FFC72E" d="M12.6 11.5c1.3.3 22.9 3.9 27.1 4.6V11c0-2.2-1.8-3.9-4-3.9h-24c-1 0-2 .4-2.7 1 .7 2.3 1.7 3 3.6 3.4"/><path fill="#4FB74E" d="M14.9 36.4l19-3.8s5.8-1.1 5.8-7.1V18L10 13l4.9 23.4zm-1.5-2.2c-.1-.4-3.5-16.5-5.1-24.2-.2.4-.3.9-.3 1.4V35c0 1 .4 1.9 1 2.6.8-.2 1.6-.3 2.3-.5 1.9-.4 2.2-2.3 2.1-2.9"/><path fill="#6DBF63" d="M9.7 38.3c.5.2 1.5.4 2 .4h2.5l-.2-1.1m20.7-4.2l-19.6 3.9.3 1.4h20.3c2.2 0 4-1.8 4-3.9v-4.9c-1.7 2.9-5 3.5-5 3.5"/><path fill="#FEFEFE" d="M21.8 35.4V34c0-6.3-.4-9.4-3.5-9.7H16l-.3-1c-.7-2.4-.7-3.4-.6-4.5v-.4c0-4.7 3.9-8.5 8.6-8.5 4.7 0 8.6 3.7 8.6 8.4.1.6.2 2.3-.6 5l-.3 1h-2.2c-3 .4-3.5 3.6-3.5 9.9v.6l-3.9.6z"/><linearGradient id="a" gradientUnits="userSpaceOnUse" x1="39.307" y1="-158.3" x2="39.307" y2="-136.64" gradientTransform="matrix(1.0123 0 0 -.9959 -15.95 -124.346)"><stop offset="0" stop-color="#1063b0"/><stop offset="1" stop-color="#0cbde5"/></linearGradient><path fill="url(#a)" d="M16.5 18.3c0 1.5.3 3.4.7 4.7h1.1c5.1.4 4.9 5.9 4.9 11.5 0 0 .8-.1 1.2-.1 0-5.6 0-10.9 4.9-11.4h1.2c.4-1.3.7-3.2.7-4.7 0-3.9-3.3-7.2-7.3-7.2s-7.4 3.3-7.4 7.2"/></svg>