<?xml version="1.0" ?><!DOCTYPE svg  PUBLIC '-//W3C//DTD SVG 1.1//EN'  'http://www.w3.org/Graphics/SVG/1.1/DTD/svg11.dtd'><svg enable-background="new 0 0 512 512" height="512px" id="Layer_1" version="1.1" viewBox="0 0 512 512" width="512px" xml:space="preserve" xmlns="http://www.w3.org/2000/svg" xmlns:xlink="http://www.w3.org/1999/xlink"><path d="M511.999,432c0,44.182-35.816,80-80,80H80c-44.183,0-80-35.818-80-80V80C0,35.817,35.818,0,80,0h351.999  c44.184,0,80,35.817,80,80V432z" fill="#2F4F75"/><polygon fill="#1B5791" points="-839.559,126.679 -844.746,121.492 -844.746,131.865 "/><path d="M358.087,457.225l1.247,1.247C358.926,458.052,358.512,457.635,358.087,457.225z" fill="#FFFFFF"/><g><g><path d="M251.967,233.961c8.824-0.346,15.738-1.686,20.898-3.786c7.125-2.903,11.871-6.606,14.049-11.169    c2.201-4.615,3.318-9.885,3.318-15.919c0-4.624-1.285-9.236-3.887-13.931c-2.547-4.612-7.049-8.104-13.48-10.334    c-5.775-2.002-13.057-3.085-21.679-3.275c-8.611-0.189-11.191-0.32-26.784-0.32h-7.405v59.248h12.42    C241.916,234.475,243.144,234.308,251.967,233.961z" fill="#1D3349"/><path d="M261.283,350.497c9.605-0.12,18.484-1.775,26.615-4.88c8.32-3.183,13.984-7.32,17.088-12.52    c3.104-5.194,4.658-11.169,4.658-17.971c0-8.863-1.943-13.8-5.709-18.642c-3.785-4.854-10.242-8.489-19.277-10.851    c-6.211-1.619-14.766-2.507-25.699-2.631c-10.878-0.122-12.744-0.189-24.594-0.189h-17.368v67.873h5.787    C245.087,350.688,251.622,350.621,261.283,350.497z" fill="#1D3349"/><path d="M365.83,149.545c2.501,2.573,4.691,5.334,6.561,8.285c5.775,9.12,8.611,19.516,8.611,31.137    c0,13.539-3.977,25.474-11.793,35.813c-7.854,10.388-18.988,18.429-33.328,24.203v1.474c20.203,3.658,28.559,11.175,40.342,22.602    c11.783,11.42,17.646,26.441,17.646,45.122c0,13.543-2.961,25.615-8.969,36.271c-5.998,10.722-14.25,19.512-24.705,26.571    c-12.141,8.22-25.488,14.128-40.029,17.657c-14.543,3.53-33.049,5.261-55.355,5.261H130.382L238.44,512H432    c44.184,0,79.999-35.818,79.999-80V295.715L365.83,149.545z" fill="#1D3349"/></g></g><path clip-rule="evenodd" d="M258.958,283.004c-10.878-0.122-12.743-0.189-24.594-0.189h-17.368  v67.873h5.786c22.304,0,28.838-0.066,38.5-0.19c9.605-0.12,18.484-1.775,26.615-4.88c8.32-3.183,13.984-7.32,17.089-12.52  c3.104-5.194,4.657-11.169,4.657-17.971c0-8.863-1.943-13.8-5.708-18.642c-3.786-4.854-10.242-8.489-19.277-10.851  C278.447,284.016,269.892,283.128,258.958,283.004L258.958,283.004z M272.864,178.823c-5.775-2.003-13.057-3.085-21.679-3.275  c-8.611-0.19-11.191-0.321-26.784-0.321h-7.405v59.249h12.42c12.499,0,13.727-0.167,22.55-0.514  c8.824-0.346,15.737-1.686,20.897-3.786c7.125-2.904,11.872-6.606,14.05-11.169c2.2-4.615,3.317-9.885,3.317-15.919  c0-4.624-1.284-9.236-3.887-13.93C283.799,184.544,279.297,181.053,272.864,178.823L272.864,178.823z M249.912,123.941  c24.851,0,50.607,0.74,62.111,2.245c11.503,1.505,22.965,4.792,34.244,9.949c11.727,5.361,20.396,12.657,26.124,21.696  c5.775,9.12,8.611,19.515,8.611,31.136c0,13.54-3.977,25.474-11.794,35.813c-7.853,10.387-18.987,18.429-33.328,24.203v1.474  c20.204,3.658,28.559,11.175,40.342,22.602c11.784,11.42,17.647,26.441,17.647,45.122c0,13.543-2.961,25.615-8.97,36.271  c-5.997,10.722-14.25,19.512-24.705,26.571c-12.141,8.22-25.487,14.128-40.028,17.657c-14.543,3.53-33.05,5.261-55.355,5.261  H130.381v-280H249.912L249.912,123.941z" fill="#FFFFFF" fill-rule="evenodd"/></svg>