<svg xmlns="http://www.w3.org/2000/svg" version="1" width="1024" height="283" viewBox="-1.655625 -1.655625 211.75482 58.49875"><path d="M69.344 0l-32.75 21.844h32.75V0zm1.187 0v21.844h19.406V0H70.531zm20.625 0v21.844h19.406V0H91.156zm20.625 0v21.844h19.375V0h-19.375zm20.594 0v21.844L165.062 0h-32.687z"/><path d="M203.495 30.052c0-1.284.967-2.253 2.209-2.253 1.226 0 2.195.97 2.195 2.253 0 1.305-.97 2.266-2.195 2.266-1.242 0-2.21-.961-2.21-2.266m2.21 2.718c1.477 0 2.74-1.148 2.74-2.718 0-1.556-1.263-2.704-2.74-2.704-1.493 0-2.754 1.148-2.754 2.704 0 1.57 1.261 2.718 2.754 2.718m-.574-2.503h.545l.825 1.355h.53l-.889-1.376c.459-.058.81-.301.81-.861 0-.617-.365-.89-1.104-.89h-1.19v3.127h.473v-1.355zm0-.402v-.968h.646c.329 0 .68.073.68.46 0 .48-.359.508-.76.508h-.566zM93.594 32.281c-9.176 0-14.125 4.683-14.125 11.657 0 7.084 4.512 11.218 12.844 11.218 4.882 0 8.004-1.5 9.656-1.5.331 0 .936.129 1.781.313v-10.25c0-.844-.03-1.439.594-2.063H94.156c-1.836 0-2.246.271-2.687 1.813l-.75 2.812c.954-.697 1.749-.875 2.812-.875h5v2c0 2.57-2.175 4-6.25 4-4.699 0-7.156-2.508-7.156-7.281 0-5.175 3.021-8.062 8.344-8.063 2.642 0 5.285.726 7.781 2.157l1.531-5.594c-.991.146-1.716.219-2.156.219-1.431 0-3.801-.563-7.031-.563zm-80.313.032C5.096 32.313 0 36.94 0 44.063c0 7.046 4.5 11.093 12.281 11.093 3.414 0 6.042-.718 7.656-.718.478 0 1.002.123 1.625.343v-5.937c-2.972 1.47-5.622 2.312-8.375 2.312-4.88 0-7.468-2.566-7.468-7.375 0-4.367 2.974-7.468 7.781-7.468 2.496 0 4.715.662 6.844 2.093l1.937-5.437c-.476.11-.851.219-1.218.218-1.432 0-4.038-.874-7.782-.874zm155.5 0c-6.24 0-9.937 2.916-9.937 6.843 0 3.414 2.672 5.36 8.031 6.094 4.331.587 6.875.75 6.875 3.063 0 1.907-1.83 2.843-5.5 2.843-3.12 0-6.229-.786-9.531-2.437l1.343 6.156a2.899 2.899 0 0 1 1.094-.219c1.358 0 3.823.532 7.125.532 7.268 0 11.219-2.772 11.219-7.47 0-3.78-2.631-5.576-7.844-6.53-4.625-.846-7.156-.622-7.156-2.75 0-1.433 1.415-2.22 4.094-2.22 3.413 0 6.277.798 8.406 2.157l1.344-5.563c-.33.147-.613.188-.907.188-1.688 0-4.655-.688-8.656-.688zm22.406 0c-6.238 0-9.906 2.916-9.906 6.843 0 3.414 2.641 5.36 8 6.094 4.331.587 6.906.75 6.906 3.063 0 1.907-1.828 2.843-5.5 2.843-3.12 0-6.258-.786-9.562-2.437l1.375 6.156a2.89 2.89 0 0 1 1.094-.219c1.358 0 3.822.532 7.125.532 7.267 0 11.187-2.772 11.187-7.47 0-3.78-2.601-5.576-7.812-6.53-4.625-.846-7.157-.622-7.157-2.75 0-1.433 1.384-2.22 4.063-2.22 3.414 0 6.277.798 8.406 2.157l1.375-5.563c-.33.147-.644.188-.937.188-1.689 0-4.655-.688-8.657-.688zm-157.406.5c.184.403.25.634.25.78 0 .22-.123.592-.343 1.032l-7.72 16.094c-.734 1.505-1.492 2.836-2.593 3.937h8.406c-.55-.477-.843-1.151-.843-2.031 0-.551.135-1.076.28-1.406l.47-1.063H44.28l.625 1.407c.11.257.25.792.25 1.343 0 .66-.261 1.163-.812 1.75h8.312c-1.029-1.064-1.896-2.396-2.593-3.937l-7.188-16.094c-.22-.476-.313-.816-.313-1 0-.182.134-.446.282-.813H33.78zm19.032 0c1.283.587 1.843 1.767 1.843 3.75v14.28c0 2.02-.522 3.227-1.843 3.813h9.093c-1.283-.55-1.875-1.794-1.875-3.812v-4.469h2.532c2.202 0 3.912.801 5.343 2.563 1.505 1.836 2.219 3.336 2.219 4.437 0 .476-.246.841-.688 1.281h9.376c-2.056-1.395-3.05-3.533-4.407-5.625-.991-1.542-1.941-2.781-3.812-3.625 3.854-.735 5.937-3.042 5.937-6.125 0-2.9-1.622-5.13-4.156-5.937-1.614-.514-3.83-.532-6.656-.532H52.813zm53.53 0c1.286.587 1.844 1.767 1.844 3.75v14.343c0 1.945-.558 3.164-1.843 3.75h20.281c-.256-.367-.438-.645-.438-.937 0-.552.883-2.287 2.094-5.407-2.349 1.91-5.045 2.594-8.531 2.594h-6.219V36.563c0-1.91.654-3.2 1.938-3.75h-9.125zm32.313 0c.184.403.281.634.281.78 0 .22-.122.592-.343 1.032l-7.75 16.094c-.735 1.505-1.462 2.836-2.563 3.937h8.406c-.55-.477-.843-1.151-.843-2.031 0-.551.103-1.076.25-1.406l.5-1.063h12.562l.625 1.407c.11.257.281.792.281 1.343 0 .66-.262 1.163-.812 1.75h8.281c-1.027-1.064-1.864-2.396-2.562-3.937l-7.188-16.094c-.22-.476-.344-.816-.344-1 0-.182.165-.446.313-.813h-9.094zM37.875 35.968l4.75 10.218h-9.156l4.406-10.218zm104.906 0l4.75 10.218h-9.156l4.406-10.218zm-82.75.593h5.813c3.486 0 4.969.652 4.969 3 0 2.35-1.483 3.063-4.97 3.063h-5.812v-6.063z" fill="#ff2008"/><path d="M71.156.625v20.594h18.188V.625H71.156zm-2.437.531C67.034 2.28 41.505 19.278 38.594 21.22h30.125V1.156z" fill="#f1e41a"/><path d="M91.75.625v20.594h18.188V.625H91.75zm20.625 0v20.594h18.188V.625h-18.188zm20.625 0v20.094c1.685-1.127 27.157-18.154 30.062-20.094H133z" fill="#ff2008"/></svg>