<svg width="13118" height="12067" viewBox="0 0 13118 12067" xmlns="http://www.w3.org/2000/svg" xmlns:xlink="http://www.w3.org/1999/xlink"><svg viewBox="168 -165 375 375" width="375" height="375" id="arrow_drawed"><path fill="#DD3F3F" stroke="#DD3F3F" d="M368.1-153.4c-2.4-4.9-10.4-4.9-12.9 0-20.7 38-39.7 76.5-50.7 118.1-1.2 6.1 5.5 12.2 11 8.6 12.2-8.6 22.6-19 31.8-31.2-2.4 85.7-14.1 174.4 6.1 258.9 1.2 6.1 11.6 4.9 11-1.2-11-87.5-2.4-174.4-1.2-261.9 10.4 9.2 20.8 18.4 30.6 27.5 4.3 4.3 13.5 1.8 12.9-5.5-4.9-40.4-18.4-78.4-38.6-113.3zm-6.7 72.9c-3.7-5.5-14.1-4.3-14.1 4.3v1.2c-7.3 7.3-14.1 14.7-22 22 9.8-28.2 22-54.5 36.1-80.8 12.2 23.9 21.4 48.3 26.3 74.7-6.7-6.1-14.1-12.2-20.8-19-1.2-2.4-3.7-3.1-5.5-2.4z"/></svg><svg viewBox="-5 -5 139 139" width="139" height="139" id="arrow_v1" x="375" y="375"><path fill="gray" d="M121.3 34.6c-1.6-1.6-4.2-1.6-5.8 0l-51 51.1-51.1-51.1c-1.6-1.6-4.2-1.6-5.8 0-1.6 1.6-1.6 4.2 0 5.8l53.9 53.9c.8.8 1.8 1.2 2.9 1.2 1 0 2.1-.4 2.9-1.2l53.9-53.9c1.7-1.6 1.7-4.2.1-5.8z"/></svg><svg viewBox="-5 -5 497.62 497.62" width="497.62" height="497.62" id="arrow_v2" x="514" y="514"><circle cx="243.811" cy="243.811" r="243.811" fill="#008eb4"/><path d="M477.946 311.989L369.499 145.983l-145.688-26.551-83.061 67.379-19.051 159.247 105.792 141.007c5.396.357 10.834.557 16.319.557 110.985 0 204.639-74.165 234.136-175.633z" opacity=".37" fill="#016f8c"/><path d="M243.811 84.54c-87.964 0-159.271 71.308-159.271 159.271s71.307 159.271 159.271 159.271 159.271-71.307 159.271-159.271S331.775 84.54 243.811 84.54zm9.925 247.773h-64.812l76.963-88.502-76.963-88.502h64.812l76.963 88.502-76.963 88.502z" fill="#fff"/></svg><svg viewBox="279.5 -54.2 468 274" width="468" height="274" id="breach" x="1012" y="1012"><title>background</title><path fill="none" d="M202-220h582v402H202z"/><g fill="#fff"><title>Layer 1</title><path d="M734.9 109.9L683.2-17.4c-1.4-3.6-7.8-17.9-23.7-25.5-8.8-4.2-23.5-7.7-43.8-.6-26.1 9.2-71.4 12.4-102.2 12.4-26.6 0-78.4-4.4-102.5-12.5-10.8-3.6-20.9-4.7-30.3-3.2-8.3 1.3-15.7 4.6-22.2 9.6-9.6 7.6-13.7 16.9-14.8 19.9l-51.6 127.2c-2.2 4.6-10.6 25-3.1 44.9 3.2 8.5 10.5 20.1 27.4 27.1 19.1 8 48.1 16 79.7 21.9 27.2 5.2 69.7 11.3 117.5 11.3s90.3-6.2 117.5-11.3c31.5-6 60.6-14 79.7-21.9 16.9-7 24.2-18.6 27.4-27.1 7.3-19.9-1.2-40.3-3.3-44.9zm-31.4 32c-.4 1-1.4 3.6-7 6-16.6 6.9-43.7 14.3-72.4 19.8-25.7 4.9-65.7 10.7-110.6 10.7-44.9 0-84.9-5.8-110.6-10.7-28.7-5.4-55.8-12.8-72.4-19.8-5.6-2.3-6.6-4.9-7-5.9-2-5.1.5-13.3 2-16.6.2-.5.3-.7.5-1.2L378-3.7l.3-.9s1.2-2.2 3.1-3.7c3.7-3 9.7-3.1 17.9-.4 1.3.4 2.6.9 4 1.3l6.5 78.5c.5 4.6 5.4 7.2 9.5 5.1l11.4-6.7c1-.5 2.2.1 2.4 1.1l11.3 54.6c.7 3.2 5 3.6 6.4.7 2.9-6.3 4.8-22.2 5.5-22.2.6 0 13.9 2.3 22.9 2.6 4.9.2 6.1-7 1.6-9.1l-23.2-11.1c-.9-.4-1.6-1.4-1.6-2.4l-2.1-40.6c-.1-2.1-2.2-3.6-4.2-3.1l-10.9 2.9c-1.2.3-2.3-.9-1.9-2.1l14.5-39.3c23 2.8 46.5 4.1 62 4.1 17.2 0 76.1-1 114.4-14.5 5.2-1.8 12.3-3.3 16.8-.3 2.4 1.6 3.6 4 4 4.7.1.3.1.1.3.6L700.8 124l.6 1.2c1.3 2.7 4.1 11.4 2.1 16.7z"/></g></svg><svg viewBox="-5 -5 522 522" width="522" height="522" id="car" x="1480" y="1286"><path d="M11.253 164.754a8.44 8.44 0 0 0 0 16.88h50.952v-16.879H11.253zm489.494 0h-50.952v16.879h50.952a8.44 8.44 0 0 0 0-16.879z" fill="#961300"/><path d="M11.253 373.847h88.795v92.554H11.253zm400.699 0h88.795v92.554h-88.795z" fill="#0e0a57"/><path d="M512 274.21c0-6.189-2.712-15.641-6.031-20.863l-22.551-35.514-34.726-139.477c-4.49-18.016-23.349-32.757-41.916-32.757H105.224c-18.567 0-37.427 14.741-41.916 32.757L28.582 217.834 6.031 253.347C2.712 258.568 0 268.021 0 274.21l57.693 31.508L0 337.225v59.122h139.883L256 362.533l116.117 33.815H512v-59.122l-57.693-31.508L512 274.21z" fill="#e42105"/><path d="M466.024 217.834L432.315 82.438c-2.604-10.446-14.776-19.96-25.538-19.96H105.224c-10.762 0-22.934 9.514-25.537 19.956l-33.711 135.4h420.048z" fill="#fff"/><path d="M71.196 274.21c17.397 0 31.508 14.1 31.508 31.508 0 17.397-14.111 31.508-31.508 31.508H0V274.21h71.196zm440.804 0v63.015h-71.196c-17.397 0-31.508-14.111-31.508-31.508 0-17.408 14.111-31.508 31.508-31.508H512z" fill="#ff7039"/><path fill="#fcded6" d="M349.612 340.027l22.505 56.32H139.883l22.505-56.32z"/></svg><svg viewBox="243 -239 522 522" width="522" height="522" id="car_guarantee" x="2002" y="1808"><g fill="#74a3c7"><path d="M696 79.5v-270.8c0-14.5-11.1-25.6-25.6-25.6H559.5c0-9.4-7.7-17.1-17.1-17.1H422.9c-9.4 0-17.1 7.7-17.1 17.1H294.9c-14.5 0-25.6 11.1-25.6 25.6v443.7c0 14.5 11.1 25.6 25.6 25.6h332.8c61.4 0 110.9-49.5 110.9-110.9.1-35.7-16.6-67.3-42.6-87.6zm-25.6-279.4c5.1 0 8.5 3.4 8.5 8.5v260c-5.4-2.8-11.1-5.2-17.1-7.1v-227.2c0-9.4-7.7-17.1-17.1-17.1h-85.3v-17.1h111zM516.9 170.5v.5c.7 20.5 6.9 39.6 17.3 55.8H320.5v-392.5h85.3c0 9.4 7.7 17.1 17.1 17.1h119.5c9.4 0 17.1-7.7 17.1-17.1h85.3V57.4c-1.2-.2-2.4-.3-3.6-.5h-.3c-.9-.1-1.9-.2-2.8-.3-.2 0-.5 0-.7-.1-.8-.1-1.6-.1-2.4-.2-.3 0-.6 0-.9-.1-.8 0-1.6-.1-2.4-.1h-4.1c-61.4 0-110.9 49.5-110.9 110.9.1 1.2.1 2.4.2 3.5zm-94-387.4h119.5v51.1H422.9v-51.1zm-128 477.8c-5.1 0-8.5-3.4-8.5-8.5v-443.7c0-5.1 3.4-8.5 8.5-8.5h110.9v17.1h-85.3c-9.4 0-17.1 7.7-17.1 17.1v392.5c0 9.4 7.7 17.1 17.1 17.1h227c6.2 6.5 13.2 12.2 20.9 17.1l-273.5-.2zm332.8 0c-27.1 0-51.5-11.4-68.5-29.6-.3-.7-.8-1.4-1.4-2-14.4-16-22.8-36.5-23.8-57.9v-.2c-.1-1.4-.1-2.8-.1-4.2 0-52.1 41.8-93.9 93.9-93.9 1.1 0 2.2 0 3.3.1h1c.7 0 1.5.1 2.2.1.7 0 1.3.1 2 .2h.3c4.8.5 9.5 1.4 14.3 3 1 .3 2 .4 3 .3 9 2.6 17.6 6.6 25.9 11.9 25.3 16.8 41.9 45.5 41.9 78.3-.1 52.1-41.9 93.9-94 93.9z"/><path d="M684.1 118.4c-4.3-3.4-9.4-2.6-11.9 1.7l-47.8 68.3-33.4-27.3c-3.4-3.4-9.4-2.6-11.9.9-3.4 3.4-2.6 9.4.9 11.9l41 33.3c.9.9 3.4 1.7 5.1 1.7 0 0 .9 0 .9.9 2.6 0 4.3-1.7 6-3.4l52.9-75.9c3.3-4.4 2.4-9.5-1.8-12.1zM550.9 47.6c15.8 0 29.2-10.9 33-25.6h13c12.8 0 22.2-9.4 23-22.2v-33.3c0-12.8-10.2-22.2-22.2-22.2h-18.2l-33-46.1c-5.1-7.7-13.7-11.9-23-11.9h-36.9c-1.2-.6-2.5-.9-4-.9s-2.9.3-4 .9h-36.9c-9.4 0-17.9 4.3-23 11.9l-33 46.1h-17.3c-12.8 0-22.2 10.2-22.2 22.2V-.2c0 12.8 9.4 22.2 22.2 22.2h13c3.8 14.7 17.2 25.6 33 25.6s29.2-10.9 33-25.6h70.4c3.9 14.7 17.3 25.6 33.1 25.6zm0-17.1c-9.4 0-17.1-7.7-17.1-17.1s7.7-17.1 17.1-17.1c9.4 0 17.1 7.7 17.1 17.1s-7.7 17.1-17.1 17.1zM532.2-93.2l26.7 37.5h-67.7v-41.8h31.6c4.2 0 7.7 1.7 9.4 4.3zm-100.7 0c2.6-2.6 6-4.3 9.4-4.3h33.3v41.8h-68.5l25.8-37.5zM414.4 30.5c-9.4 0-17.1-7.7-17.1-17.1s7.7-17 17.1-17 17.1 7.7 17.1 17.1-7.7 17-17.1 17zm.9-51.2h-.9c-15.8 0-29.2 10.9-33 25.6h-13c-2.6 0-5.1-2.6-5.1-5.1v-33.3c0-2.6 2.6-5.1 5.1-5.1H385c1.1.5 2.4.9 3.8.9h187.7c1.4 0 2.7-.3 3.8-.9h17.5c2.6 0 5.1 2.6 5.1 5.1V-.2c0 2.6-2.6 5.1-5.1 5.1h-13.7c-4.3-14.5-15.4-25.6-31.6-25.6h-1.7c-15.8 0-29.2 10.9-33 25.6h-69.4c-4.1-14.5-16.9-25.6-33.1-25.6zm67.4 111h-128c-5.1 0-8.5 3.4-8.5 8.5s3.4 8.5 8.5 8.5h128c5.1 0 8.5-3.4 8.5-8.5s-3.4-8.5-8.5-8.5zm0 42.6h-128c-5.1 0-8.5 3.4-8.5 8.5s3.4 8.5 8.5 8.5h128c5.1 0 8.5-3.4 8.5-8.5s-3.4-8.5-8.5-8.5zm0 42.7h-128c-5.1 0-8.5 3.4-8.5 8.5s3.4 8.5 8.5 8.5h128c5.1 0 8.5-3.4 8.5-8.5s-3.4-8.5-8.5-8.5z"/></g></svg><svg viewBox="-5 -5 80 80" width="80" height="80" id="check" x="2524" y="2330"><path d="M26.474 70a6.972 6.972 0 0 1-5.557-2.764L3.049 43.639a6.971 6.971 0 0 1 11.116-8.414l11.752 15.518L55.474 3.285a6.977 6.977 0 0 1 9.604-2.232 6.969 6.969 0 0 1 2.23 9.602l-34.916 56.06A6.967 6.967 0 0 1 26.474 70z" fill="#333"/></svg><svg viewBox="-5 -5 80 80" width="522" height="522" id="check_v2" x="2604" y="2410"><path d="M26.474 70a6.972 6.972 0 0 1-5.557-2.764L3.049 43.639a6.971 6.971 0 0 1 11.116-8.414l11.752 15.518L55.474 3.285a6.977 6.977 0 0 1 9.604-2.232 6.969 6.969 0 0 1 2.23 9.602l-34.916 56.06A6.967 6.967 0 0 1 26.474 70z" fill="#2cca70"/></svg><svg viewBox="-5 -5 54 54" width="54" height="54" id="checked_circle" x="3126" y="2932"><path fill="#2cca70" d="M22 0C9.8 0 0 9.8 0 22s9.8 22 22 22 22-9.8 22-22S34.2 0 22 0zm12.7 15.1l-16 16.6c-.2.2-.4.3-.7.3-.3 0-.6-.1-.7-.3l-7.8-8.4-.2-.2c-.2-.2-.3-.5-.3-.7s.1-.5.3-.7l1.4-1.4c.4-.4 1-.4 1.4 0l.1.1 5.5 5.9c.2.2.5.2.7 0l13.4-13.9h.1c.4-.4 1-.4 1.4 0l1.4 1.4c.4.3.4.9 0 1.3z"/></svg><svg viewBox="256.5 -252.5 550 550" width="550" height="550" id="clock" x="3180" y="2986"><g fill="#74a3c7"><path d="M531.5 292C382.9 292 262 171.1 262 22.5S382.9-247 531.5-247 801-126.1 801 22.5C801.1 171.1 680.2 292 531.5 292zm0-516.6c-136.2 0-247.1 110.8-247.1 247.1s110.8 247.1 247.1 247.1S778.6 158.7 778.6 22.5 667.8-224.6 531.5-224.6z"/><path d="M531.5 67.4c-24.8 0-44.9-20.2-44.9-44.9 0-24.8 20.1-44.9 44.9-44.9 24.8 0 44.9 20.1 44.9 44.9.1 24.7-20.1 44.9-44.9 44.9zm0-67.4C519.1 0 509 10.1 509 22.5S519.1 45 531.5 45 554 34.9 554 22.5 543.9 0 531.5 0z"/><path d="M728.6 115.4c-1.4 0-2.9-.3-4.3-.9l-41.5-17.2c-5.7-2.4-8.4-9-6.1-14.7 2.4-5.7 9-8.5 14.7-6.1l41.5 17.2c5.7 2.4 8.4 9 6.1 14.7-1.8 4.3-5.9 7-10.4 7zm-394.2-.1c-4.4 0-8.6-2.6-10.4-6.9-2.4-5.7.4-12.3 6.1-14.7l41.5-17.2c5.7-2.4 12.3.4 14.7 6.1 2.4 5.7-.4 12.3-6.1 14.7l-41.5 17.2c-1.4.6-2.9.8-4.3.8zm27.4-77.4h-44.9c-6.2 0-11.2-5-11.2-11.2 0-6.2 5-11.2 11.2-11.2h44.9c6.2 0 11.2 5 11.2 11.2 0 6.1-5 11.2-11.2 11.2zm383.1-4.2H700c-6.2 0-11.2-5-11.2-11.2 0-6.2 5-11.2 11.2-11.2h44.9c6.2 0 11.2 5 11.2 11.2 0 6.2-5 11.2-11.2 11.2zM555.4 9.9c-2.9 0-5.7-1.1-7.9-3.3-4.4-4.4-4.4-11.5 0-15.9l111.2-111.2c4.4-4.4 11.5-4.4 15.9 0s4.4 11.5 0 15.9L563.3 6.6c-2.2 2.2-5.1 3.3-7.9 3.3zM375.9-30.8c-1.4 0-2.9-.3-4.3-.9l-41.5-17.2c-5.7-2.4-8.4-8.9-6.1-14.7 2.4-5.7 8.9-8.4 14.7-6.1l41.5 17.2c5.7 2.4 8.4 8.9 6.1 14.7-1.8 4.4-6 7-10.4 7zm311.3 0c-4.4 0-8.6-2.6-10.4-6.9-2.4-5.7.4-12.3 6.1-14.7l41.5-17.2c5.7-2.3 12.3.4 14.7 6.1 2.4 5.7-.4 12.3-6.1 14.7l-41.5 17.2c-1.4.6-2.9.8-4.3.8zM412.4-85.4c-2.9 0-5.7-1.1-7.9-3.3l-31.7-31.8c-4.4-4.4-4.4-11.5 0-15.9s11.5-4.4 15.9 0l31.7 31.8c4.4 4.4 4.4 11.5 0 15.9-2.3 2.2-5.1 3.3-8 3.3zm54.7-36.6c-4.4 0-8.6-2.6-10.4-6.9l-17.2-41.5c-2.4-5.7.4-12.3 6.1-14.7 5.7-2.3 12.3.4 14.7 6.1l17.2 41.5c2.4 5.7-.4 12.3-6.1 14.7-1.4.6-2.9.8-4.3.8zm128.9 0c-1.4 0-2.9-.3-4.3-.9-5.7-2.4-8.4-8.9-6.1-14.7l17.2-41.5c2.4-5.7 9-8.4 14.7-6.1 5.7 2.4 8.4 8.9 6.1 14.7L606.4-129c-1.8 4.4-6 7-10.4 7zm-65.7-8.6c-6.2 0-11.2-5-11.2-11.2v-44.9c0-6.2 5-11.2 11.2-11.2 6.2 0 11.2 5 11.2 11.2v44.9c0 6.2-5 11.2-11.2 11.2zm102.3 332.8H430.5c-6.2 0-11.2-5-11.2-11.2v-67.4c0-6.2 5-11.2 11.2-11.2h202.2c6.2 0 11.2 5 11.2 11.2V191c-.1 6.1-5.1 11.2-11.3 11.2zm-190.9-22.5h179.7v-44.9H441.7v44.9z"/></g></svg><svg viewBox="-5 -5 522 522" width="522" height="522" id="clock_v2" x="3730" y="3536"><circle cx="256" cy="256" r="256" fill="#ff9e24"/><circle cx="256" cy="256" r="207.469" fill="#fff"/><path d="M342.649 196.805c7.582-7.582 7.582-19.872 0-27.453-7.582-7.582-19.872-7.582-27.453 0l-73.605 73.605 27.453 27.453 73.605-73.605z" fill="#181818"/><path d="M244.229 250.613L135.035 359.807c-4.738 4.738-4.738 12.42 0 17.159a12.101 12.101 0 0 0 8.579 3.554c3.105 0 6.211-1.185 8.579-3.554l109.194-109.194-17.158-17.159z" fill="#ee3840"/><path d="M171.066 143.614c-7.582-7.582-19.872-7.582-27.453 0-7.582 7.582-7.582 19.872 0 27.453l99.343 99.343 27.453-27.453-99.343-99.343z" fill="#181818"/><path d="M256 286.332c-16.725 0-30.332-13.607-30.332-30.332s13.607-30.332 30.332-30.332 30.332 13.607 30.332 30.332-13.607 30.332-30.332 30.332z" fill="#524e4d"/><path d="M115.261 268.133H97.062c-6.701 0-12.133-5.433-12.133-12.133s5.432-12.133 12.133-12.133h18.199c6.701 0 12.133 5.433 12.133 12.133s-5.432 12.133-12.133 12.133zM256 127.393c-6.701 0-12.133-5.433-12.133-12.133V97.062c0-6.7 5.432-12.133 12.133-12.133 6.701 0 12.133 5.433 12.133 12.133v18.199c0 6.699-5.432 12.132-12.133 12.132zm158.938 140.74h-18.199c-6.701 0-12.133-5.433-12.133-12.133s5.432-12.133 12.133-12.133h18.199c6.701 0 12.133 5.433 12.133 12.133s-5.432 12.133-12.133 12.133zM256 427.071c-6.701 0-12.133-5.433-12.133-12.133v-18.199c0-6.7 5.432-12.133 12.133-12.133 6.701 0 12.133 5.433 12.133 12.133v18.199c0 6.7-5.432 12.133-12.133 12.133z" fill="#7a7674"/></svg><svg viewBox="-2.1 7.1 32 32" width="32" height="32" id="close" x="4252" y="4058"><path d="M17.1 23.4c-.2-.2-.2-.5 0-.7l7.5-7.5c.2-.2.3-.5.3-.7s-.1-.5-.3-.7l-1.4-1.4c-.2-.2-.5-.3-.7-.3-.3 0-.5.1-.7.3l-7.5 7.5c-.2.2-.5.2-.7 0l-7.5-7.5c-.2-.2-.5-.3-.7-.3s-.5.1-.7.3l-1.4 1.4c-.2.2-.3.5-.3.7 0 .2.1.5.3.7l7.5 7.5c.2.2.2.5 0 .7l-7.5 7.5c-.2.2-.3.5-.3.7s.1.5.3.7l1.4 1.4c.2.2.5.3.7.3s.5-.1.7-.3l7.5-7.5c.2-.2.5-.2.7 0l7.5 7.5c.2.2.5.3.7.3s.5-.1.7-.3l1.4-1.4c.2-.2.3-.5.3-.7s-.1-.5-.3-.7l-7.5-7.5z"/></svg><svg viewBox="238.8 -234.8 514 514" width="514" height="514" id="euro_tech" x="4284" y="4090"><path d="M730.8-53.8H714c0-9.2-7.6-16.8-16.8-16.8h-16.8c0-14.3-10.9-25.2-25.2-25.2H386.7c-11.3 0-20.6 6.9-23.9 16.9-16.2 1.1-29.8 11-35.9 25.1h-22.5l-22.7-21c-3.4-3.4-8.4-3.4-11.8 0l-23.5 23.5c-1.7 1.7-2.5 3.4-2.5 5.9 0 2.5.8 4.2 2.5 5.9l35.3 33.6c1.7 1.7 3.4 2.5 5.9 2.5h33.1l-8.8 115c-.8 7.6 1.7 14.3 6.7 19.3 5 5.9 11.8 8.4 18.5 8.4 22.7 0 42-16.8 44.5-40.3l4.5-60.4h10.4l18.6 82.3c1.7 6.7 5.9 12.6 11.8 15.9 4.2 2.5 8.4 3.4 12.6 3.4 2.5 0 5-.8 7.6-1.7 21.8-5.9 35.3-27.7 31.1-50.4l-8.4-49.5h185.5c14.3 0 25.2-10.9 25.2-25.2h16.8c9.2 0 16.8-7.6 16.8-16.8h16.8c9.2 0 16.8-7.6 16.8-16.8V-37c-.1-9.2-7.6-16.8-16.9-16.8zM604.9-78.9v33.6c0 5-3.4 8.4-8.4 8.4H445.4c-5 0-8.4-3.4-8.4-8.4v-33.6h167.9zM322.1-20.2H291l-26.9-25.2 12.6-11.8L296-39.5c.8 1.7 3.4 2.5 5 2.5h22.3L322-20.6l.1.4zm42.8 116.7v1.7c-1.7 13.4-13.4 24.3-27.7 24.3-2.5 0-4.2-.8-5.9-2.5-1.7-2.5-2.5-4.2-2.5-6.7L340-32.5l.6-7c0-.8.8-1.7.8-3.4.3-1 .4-2 .3-3.1 2.9-8.8 10.8-14.8 19.9-16.2v75.6c0 7.7 3.2 14.4 8.4 19l-5.1 64.1zm97.3-7.6v1.7c2.5 14.3-5.9 27.7-19.3 31.9-2.5.8-5 0-6.7-.8-2.5-.8-3.4-2.5-4.2-5l-17.6-78.1H453l9.2 50.3zm201.5-75.5c0 5-3.4 8.4-8.4 8.4h-25.2V5c0-5-3.4-8.4-8.4-8.4S613.3 0 613.3 5v16.8H563V5c0-5-3.4-8.4-8.4-8.4S546.2 0 546.2 5v16.8h-50.4V5c0-5-3.4-8.4-8.4-8.4S479 0 479 5v16.8h-50.4V5c0-5-3.4-8.4-8.4-8.4S411.8 0 411.8 5v16.8h-25.2c-.8 0-1.5-.1-2.2-.2-.4-.2-.7-.4-1.2-.6-3.4-1.7-5-4.2-5-7.6v-83.9c0-5 3.4-8.4 8.4-8.4h33.6v33.6c0 14.3 10.9 25.2 25.2 25.2h151.1c14.3 0 25.2-10.9 25.2-25.2v-33.6h33.6c5 0 8.4 3.4 8.4 8.4v83.9zm33.5-16.8h-16.8v-50.4h16.8v50.4zm33.6-16.8H714V-37h16.8v16.8z" fill="#74a3c7"/></svg><svg viewBox="8.5 -4.5 54 54" width="54" height="54" id="exclusive_tech" x="4798" y="4604"><path fill="#74a3c7" d="M39.9 1c1.4.3 2.7.7 4 1.2 1.3.5 2.6 1.2 3.7 2 .5.3.7 1 .3 1.6 0 .1-.1.1-.1.2-.5.6-.8 1.3-.8 2 0 .8.3 1.5.9 2.1.6.6 1.3.9 2.1.9s1.5-.3 2.1-.8c.4-.4 1.2-.4 1.6 0l.1.1c.8 1.2 1.4 2.4 2 3.7.5 1.3.9 2.7 1.2 4 .1.6-.3 1.2-.9 1.3h-.2c-.8 0-1.5.4-2.1.9-.5.5-.8 1.3-.8 2.1s.3 1.6.8 2.1 1.3.9 2.1.9c.6 0 1.1.5 1.1 1.1v.2c-.3 1.4-.7 2.7-1.2 4-.6 1.3-1.2 2.6-2 3.7-.3.5-1 .7-1.5.3-.1 0-.1-.1-.2-.1-.6-.5-1.3-.8-2.1-.8-.7 0-1.5.3-2.1.9-.6.6-.9 1.3-.9 2.1s.3 1.5.8 2.1c.4.4.4 1.1 0 1.6 0 0-.1.1-.2.1-1.2.8-2.4 1.4-3.7 2-1.3.5-2.6 1-4 1.2-.6.1-1.2-.3-1.3-.9v-.2c0-.8-.4-1.6-.9-2.1s-1.3-.8-2.1-.8-1.6.3-2.1.8-.9 1.3-.9 2.1c0 .6-.5 1.1-1.1 1.1h-.2c-1.4-.3-2.7-.7-4-1.2-1.3-.5-2.6-1.2-3.7-2-.5-.3-.7-1-.3-1.6 0-.1.1-.1.1-.2.6-.6.8-1.3.8-2.1 0-.7-.3-1.5-.9-2.1-.6-.6-1.3-.9-2.1-.9s-1.5.3-2.1.8c-.4.4-1.2.4-1.6 0 0 0-.1-.1-.1-.2-.8-1.2-1.5-2.4-2-3.7v-.1c-.5-1.3-.9-2.6-1.2-4-.1-.6.3-1.2.9-1.3h.2c.8 0 1.5-.4 2.1-.9.5-.5.9-1.3.9-2.1s-.3-1.6-.9-2.1c-.5-.6-1.3-.9-2.1-.9-.6 0-1.1-.5-1.1-1.1v-.2c.3-1.4.7-2.7 1.2-4 .5-1.3 1.2-2.6 2-3.7.3-.5 1-.7 1.5-.3.1 0 .1.1.2.1.6.6 1.3.8 2.1.8.7 0 1.5-.3 2.1-.9.4-.2.7-1 .7-1.8 0-.7-.3-1.5-.8-2.1-.4-.4-.4-1.2 0-1.6 0 0 .1-.1.2-.1 1.2-.8 2.4-1.4 3.7-2 1.3-.5 2.6-1 4-1.2.6-.1 1.2.3 1.3.9v.2c0 .8.4 1.5.9 2.1.7.5 1.4.8 2.2.8.8 0 1.6-.3 2.1-.9.5-.5.9-1.3.9-2.1 0-.5.5-1 1.2-1h.2zm-4.4 10.8c2.9 0 5.6 1.2 7.5 3.1 1.9 1.9 3.1 4.6 3.1 7.5 0 2.9-1.2 5.6-3.1 7.5-1.9 1.9-4.6 3.1-7.5 3.1-3 0-5.6-1.2-7.5-3.1-1.9-1.9-3.1-4.6-3.1-7.5 0-3 1.2-5.6 3.1-7.5 1.9-1.9 4.6-3.1 7.5-3.1zm6 4.8c-1.5-1.5-3.6-2.5-6-2.5-2.3 0-4.4 1-6 2.5s-2.5 3.6-2.5 6c0 2.3.9 4.4 2.5 6s3.6 2.5 6 2.5c2.3 0 4.4-.9 6-2.5 1.5-1.5 2.5-3.6 2.5-6-.1-2.4-1-4.5-2.5-6zM43 4.3c-.8-.3-1.7-.6-2.5-.8-.3.9-.7 1.7-1.4 2.3-.9.9-2.2 1.5-3.7 1.5-1.4 0-2.7-.6-3.7-1.5-.7-.6-1.1-1.4-1.4-2.3-.7.2-1.5.5-2.3.8-.8.3-1.6.7-2.4 1.2.4.8.7 1.7.7 2.6 0 1.3-.5 2.6-1.5 3.6s-2.3 1.5-3.7 1.5c-.9 0-1.8-.2-2.6-.7l-1.2 2.4c-.3.8-.6 1.6-.8 2.5.9.3 1.7.7 2.3 1.4.9 1 1.5 2.2 1.5 3.7 0 1.4-.6 2.7-1.5 3.7-.6.6-1.4 1.1-2.3 1.4.2.8.5 1.7.8 2.4v.1c.3.8.7 1.6 1.2 2.4.8-.4 1.7-.7 2.6-.6 1.3 0 2.6.5 3.7 1.5 1 1 1.5 2.3 1.5 3.6 0 .9-.2 1.8-.7 2.6l2.4 1.2c.8.3 1.6.6 2.5.9.3-.9.7-1.7 1.4-2.3.9-.9 2.2-1.5 3.7-1.5 1.4 0 2.7.6 3.7 1.5.6.6 1.1 1.4 1.4 2.3.8-.2 1.7-.5 2.5-.9.8-.3 1.6-.7 2.4-1.2-.4-.8-.7-1.7-.6-2.6 0-1.3.5-2.6 1.5-3.6s2.3-1.5 3.6-1.5c.9 0 1.8.2 2.6.6.4-.8.8-1.5 1.2-2.4.3-.8.6-1.7.8-2.5-.9-.3-1.7-.7-2.3-1.4-.9-1-1.5-2.2-1.5-3.7 0-1.4.6-2.7 1.5-3.7.6-.6 1.4-1.1 2.3-1.4-.2-.9-.5-1.7-.8-2.5-.3-.8-.7-1.6-1.2-2.4-.8.4-1.7.7-2.6.7-1.3 0-2.6-.5-3.6-1.5S45 9.4 45 8.1c0-.9.2-1.8.6-2.6-.9-.5-1.7-.9-2.6-1.2z"/></svg><svg viewBox="35.1 -31.1 106 106" width="106" height="106" id="facebook" x="4852" y="4658"><path fill="#fff" d="M111.6-26H99.4c-13.7 0-22.6 9.3-22.6 23.6V8.5H64.5c-1.1 0-1.9.9-1.9 2v15.8c0 1.1.9 2 1.9 2h12.3V68c0 1.1.9 2 1.9 2h16c1.1 0 1.9-.9 1.9-2V28.2H111c1.1 0 1.9-.9 1.9-2V10.4c0-1.1-.9-2-1.9-2H96.7V-.8c0-4.4 1-6.7 6.7-6.7h8.2c1.1 0 1.9-.9 1.9-2v-14.7c.1-1-.8-1.8-1.9-1.8z"/></svg><svg viewBox="-5 -5 522 522" width="522" height="522" id="google_maps" x="4958" y="4764"><path d="M451.809 239.542v217.654l-68.402-12.661-30.156-36.174-127.06-141.254 107.876-76.649c54.037 71.326 55.741 53.938 55.741 53.938s26.692-39.85 60.936-5.607l1.065.753z" fill="#ccc"/><path d="M190.707 223.105l224.311 288.696a40.57 40.57 0 0 1-3.96.199H44.336l146.371-288.895z" fill="#518ef8"/><path d="M334.068 190.458L.447 471.248V101.389c0-22.512 18.254-40.752 40.752-40.752h243.289c-10.447 17.956 28.289 29.481 28.289 51.752 0 22.414 10.717 60.028 21.291 78.069z" fill="#28b446"/><path d="M451.809 457.196v14.052c0 21.164-16.139 38.566-36.791 40.553L227.313 326.567l45.436-46.046 104.867 103.476 5.791 5.72 68.402 67.479z" fill="#f2f2f2"/><path d="M322.514 230.088l-49.765 50.432-45.436 46.046L44.336 512h-3.137C18.701 512 .447 493.746.447 471.248L284.701 183.19c5.323 9.113 41.93-.114 49.368 7.267l13.67 17.572c6.671 7.113-30.959 14.508-25.225 22.059z" fill="#ffd837"/><path d="M106.904 227.775c-35.808 0-64.939-29.131-64.939-64.939s29.131-64.939 64.939-64.939c17.334 0 33.637 6.758 45.91 19.03l-15.057 15.054c-8.248-8.25-19.206-12.793-30.853-12.793-24.068 0-43.647 19.58-43.647 43.647s19.58 43.647 43.647 43.647c20.396 0 37.571-14.062 42.334-33.002h-42.334v-21.291h64.939v10.646c-.001 35.809-29.131 64.94-64.939 64.94z" fill="#fff"/><path d="M284.488 60.638C305.566 24.386 344.842 0 389.809 0c67.238 0 121.744 54.506 121.744 121.744 0 16.863-3.435 32.916-9.624 47.522a121.976 121.976 0 0 1-26.245 38.764c-9.226 9.808-17.501 20.17-24.939 30.759-48.729 69.424-60.936 148.685-60.936 148.685s-13.257-86.06-67.295-157.386c-5.734-7.551-11.923-14.947-18.594-22.058h.014a120.9 120.9 0 0 1-19.233-24.84c-10.575-18.041-16.636-39.034-16.636-61.447 0-22.27 5.976-43.15 16.423-61.105z" fill="#f14336"/><path d="M389.81 56.947c35.781 0 64.781 29.017 64.781 64.798s-29 64.781-64.781 64.781-64.798-29-64.798-64.781 29.018-64.798 64.798-64.798z" fill="#7e2d25"/></svg><svg viewBox="-5 -5 421.22 421.22" width="421.22" height="421.22" id="group" x="5480" y="5286"><path d="M405.169 352.183v.13c-40.37 36.61-93.96 58.91-152.74 58.91-58.79 0-112.38-22.3-152.75-58.91v-.13c0-60.89 35.63-113.45 87.17-137.98 19.37 19.32 42.05 29.73 65.58 29.73 23.54 0 46.21-10.41 65.59-29.73 51.54 24.53 87.15 77.09 87.15 137.98z" fill="#1ea6c6"/><path d="M252.429 21.883c46.66 0 84.49 37.82 84.49 84.48 0 46.67-37.83 110.49-84.49 110.49s-84.49-63.82-84.49-110.49c0-46.66 37.83-84.48 84.49-84.48z" fill="#fcd09f"/><path d="M181.224 187.15c2.59 3.69 5.27 7.15 8.04 10.4l-8.43 4.01c-28.06 13.35-51.8 34.24-68.67 60.41a165.994 165.994 0 0 0-25.31 70.31c-30.49-8.31-58.05-23.72-80.8-44.35v-.11c0-53.06 31.05-98.86 75.96-120.24 16.88 16.84 36.64 25.91 57.14 25.91 13.43 0 26.55-3.89 38.74-11.31 1.07 1.68 2.19 3.34 3.33 4.97z" fill="#ef806f"/><path d="M153.944 106.36c0 17.54 4.56 36.84 12.68 54.98-8.49 5.38-17.76 8.55-27.47 8.55-40.66 0-73.62-55.61-73.62-96.28 0-40.66 32.96-73.61 73.62-73.61 22.55 0 42.74 10.14 56.24 26.11-25.07 17.88-41.45 47.19-41.45 80.25z" fill="#efc59c"/></svg><svg viewBox="243 -239 522 522" width="522" height="522" id="guarantee" x="5902" y="5708"><path d="M566.2-234H258.7v512h384v-435.5L566.2-234zm1.8 32l42.7 42.7H568V-202zm53.3 458.7H280v-469.3h266.7v74.7h74.7l-.1 394.6z" fill="#74a3c7"/><path d="M568 139.3h-64c-5.9 0-10.7 4.8-10.7 10.7s4.8 10.7 10.7 10.7h64c5.9 0 10.7-4.8 10.7-10.7s-4.8-10.7-10.7-10.7zM568-42H333.3c-5.9 0-10.7 4.8-10.7 10.7s4.8 10.7 10.7 10.7H568c5.9 0 10.7-4.8 10.7-10.7S573.9-42 568-42zm0 64H333.3c-5.9 0-10.7 4.8-10.7 10.7 0 5.9 4.8 10.7 10.7 10.7H568c5.9 0 10.7-4.8 10.7-10.7 0-5.9-4.8-10.7-10.7-10.7zM450.7-106H333.3c-5.9 0-10.7 4.8-10.7 10.7s4.8 10.7 10.7 10.7h117.3c5.9 0 10.7-4.8 10.7-10.7s-4.7-10.7-10.6-10.7zM376 86c-29.5 0-53.3 23.9-53.3 53.3 0 17.4 8.4 32.9 21.3 42.7v53.3l32-10.7 32 10.7V182c13-9.7 21.3-25.2 21.3-42.7 0-29.4-23.9-53.3-53.3-53.3zm10.7 119.7l-3.9-1.3-6.7-2.3-6.8 2.3-3.9 1.3v-14.1c3.4.7 7 1.1 10.7 1.1 3.7 0 7.2-.4 10.7-1.1v14.1zM376 171.3c-17.6 0-32-14.4-32-32 0-17.7 14.4-32 32-32s32 14.3 32 32-14.4 32-32 32zM749.3-106c0-23.6-19.1-42.7-42.7-42.7s-42.7 19.1-42.7 42.7v288h13.2L664 228.2l42.7 28.4 42.7-28.4-13.3-46.2h13.3v-288zm-42.6 337l-17.9-11.9 10.6-37.1h14.5l10.6 37.1-17.8 11.9zm21.3-70.3h-42.7V-106c0-11.8 9.6-21.3 21.3-21.3 11.8 0 21.3 9.6 21.3 21.3v266.7z" fill="#74a3c7"/><path d="M376 128.7c-5.9 0-10.7 4.8-10.7 10.7 0 5.9 4.8 10.7 10.7 10.7 5.9 0 10.7-4.8 10.7-10.7 0-6-4.8-10.7-10.7-10.7z" fill="#74a3c7"/></svg><svg viewBox="236 -232 508 508" width="508" height="508" id="info" x="6424" y="6230"><linearGradient id="asa" gradientUnits="userSpaceOnUse" x1="961.049" y1="-.299" x2="961.049" y2=".705" gradientTransform="matrix(496.158 0 0 496.152 -476341.969 -78.54)"><stop offset="0" stop-color="#8ed0f3"/><stop offset="1" stop-color="#188bc4"/></linearGradient><path fill="url(#asa)" d="M739 22c0-137.5-111.5-249-249-249S241-115.5 241 22s111.5 249 249 249S739 159.5 739 22z"/><path fill="#FFF" d="M557.1 133.5c-1.4-2-4-2.8-6.3-1.7-24.6 11.6-52.5 23.9-58 25-.2-.2-.5-.5-.6-.7-.7-1-1.1-2.3-1.1-4 0-13.9 10.5-56.2 31.2-125.7 17.5-58.4 19.5-70.5 19.5-74.5 0-6.2-2.4-11.4-6.9-15.1-4.3-3.5-10.2-5.3-17.7-5.3-12.5 0-26.9 4.7-44.1 14.5-16.7 9.4-35.4 25.4-55.4 47.5-1.9 2-1.7 5.2.3 7.1 1.4 1.3 3.5 1.7 5.2.9 7-2.9 42.4-17.4 47.6-20.6 4.2-2.6 7.9-4 10.9-4h.3c0 .2.1.5.1.9 0 3-.6 6.7-1.9 10.7-30.1 97.6-44.8 157.5-44.8 183 0 9 2.5 16.2 7.4 21.5 5 5.4 11.8 8.1 20.1 8.1 8.9 0 19.7-3.7 33.1-11.4 12.9-7.4 32.7-23.7 60.4-49.7 1.8-1.7 2.1-4.5.7-6.5zm-.9-282.9c-4.9-5-11.2-7.6-18.7-7.6-9.3 0-17.5 3.7-24.2 11-6.6 7.2-9.9 15.9-9.9 26.1 0 8 2.5 14.7 7.3 19.8 4.9 5.2 11.1 7.8 18.5 7.8 9 0 17-3.9 24-11.6 6.9-7.6 10.4-16.4 10.4-26.4-.1-7.7-2.5-14.1-7.4-19.1z"/></svg><svg viewBox="72 -68 180 180" width="180" height="180" id="instagram" x="6932" y="6738"><g fill="#fff"><path d="M199.9-62.5h-75.7c-25.7 0-46.6 20.9-46.6 46.6v75.7c0 25.7 20.9 46.6 46.6 46.6h75.7c25.7 0 46.6-20.9 46.6-46.6v-75.7c0-25.7-20.9-46.6-46.6-46.6zm31.6 122.4c0 17.4-14.2 31.6-31.6 31.6h-75.7c-17.4 0-31.6-14.2-31.6-31.6v-75.7c0-17.4 14.2-31.6 31.6-31.6h75.7c17.4 0 31.6 14.2 31.6 31.6v75.7z"/><path d="M162-21.5c-24 0-43.5 19.5-43.5 43.5S138 65.5 162 65.5 205.5 46 205.5 22 186-21.5 162-21.5zm0 72.1c-15.7 0-28.6-12.8-28.6-28.6 0-15.7 12.8-28.6 28.6-28.6S190.6 6.3 190.6 22c0 15.7-12.9 28.6-28.6 28.6zm45.4-84.9c-2.9 0-5.7 1.2-7.8 3.2-2.1 2.1-3.2 4.9-3.2 7.8 0 2.9 1.2 5.7 3.2 7.8 2 2 4.9 3.2 7.8 3.2 2.9 0 5.7-1.2 7.8-3.2 2-2 3.2-4.9 3.2-7.8 0-2.9-1.2-5.7-3.2-7.8-2.1-2-4.9-3.2-7.8-3.2z"/></g></svg><svg viewBox="11.8 31.3 38 38" width="38" height="38" id="location" x="7112" y="6918"><g fill="#073F5C"><path d="M30.8 42.4c-2 0-3.6 1.6-3.6 3.6s1.6 3.6 3.6 3.6 3.6-1.6 3.6-3.6-1.6-3.6-3.6-3.6zm0 6.1c-1.4 0-2.6-1.1-2.6-2.6 0-1.4 1.1-2.6 2.6-2.6s2.6 1.1 2.6 2.6-1.1 2.6-2.6 2.6z"/><path d="M37.7 39.1c-1.8-1.8-4.3-2.9-6.9-2.9-2.6 0-5.1 1-6.9 2.9-3.4 3.4-3.9 9.9-.9 13.8l7.9 11.3 7.8-11.3c2.8-3.9 2.4-10.4-1-13.8zm.1 13.2l-7 10.1-7-10.1c-2.7-3.5-2.3-9.4.8-12.5 1.7-1.7 3.9-2.6 6.2-2.6s4.5.9 6.2 2.6c3.1 3.1 3.4 9 .8 12.5z"/></g></svg><svg viewBox="50 -21 136 86" width="136" height="86" id="maestro" x="7150" y="6956"><path fill="#0066CB" d="M118 49.8c7.6-6.9 12.3-16.8 12.3-27.9 0-11-4.7-21-12.3-27.8-6.9-6.3-15.9-9.7-25.2-9.7C72-15.7 55.2 1.1 55.2 21.9S72 59.5 92.8 59.5c9.3 0 18.3-3.5 25.2-9.7"/><path fill="#0066CB" d="M118 49.8c7.6-6.9 12.3-16.8 12.3-27.9 0-11-4.7-21-12.3-27.8"/><path fill="none" stroke="#0066CB" stroke-width=".31" d="M118 49.8c7.6-6.9 12.3-16.8 12.3-27.9 0-11-4.7-21-12.3-27.8"/><path fill="#CC0001" d="M143.3-15.7c-9.7 0-18.6 3.7-25.3 9.7-1.4 1.2-2.6 2.6-3.8 4h7.6c1.1 1.2 2 2.6 2.8 4h-13.3c-.8 1.3-1.5 2.6-2.2 4h17.7c.6 1.3 1.1 2.6 1.6 4h-20.8c-.5 1.3-.8 2.6-1.1 4h23c.6 2.6.8 5.2.8 8 0 4.2-.7 8.2-2 11.9h-20.8c.4 1.4.9 2.7 1.6 4h17.7c-.7 1.4-1.3 2.7-2.2 4h-13.3c.8 1.4 1.8 2.7 2.9 4h7.6c-1.2 1.4-2.4 2.7-3.8 4 6.6 6 15.5 9.7 25.3 9.7 20.7 0 37.5-16.8 37.5-37.6 0-20.9-16.8-37.7-37.5-37.7"/><path fill="#231F20" d="M86.9 32.3h-4.7L85 17.8l-6.4 14.6h-3.9l-.8-14.6-3.1 14.6h-4.3l3.6-19h7.4l.1 11.8 5.1-11.8h7.9l-3.7 18.9m52.3-.2c-1.3.4-2.3.5-3.4.5-2.4 0-3.7-1.2-3.7-3.4 0-.4 0-.9.1-1.4l.3-1.5.2-1.2 2.2-11.8h4.6l-.7 3.6h2.4l-.7 3.8h-2.4L137 27c-.1.3-.1.5-.1.6 0 .8.4 1.2 1.6 1.2.6 0 .9 0 1.3-.1l-.6 3.4m-18.6-10.3c0 2 1.1 3.3 3.6 4.3 1.9.8 2.2 1 2.2 1.7 0 1-.8 1.4-2.7 1.4-1.4 0-2.7-.2-4.2-.6l-.6 3.6h.2l.9.2c.3 0 .7.1 1.2.1 1.1.1 2 .1 2.6.1 5 0 7.3-1.6 7.3-5.2 0-2.1-1-3.4-3.3-4.3-2-.8-2.2-1-2.2-1.7 0-.8.8-1.3 2.3-1.3.9 0 2.2.1 3.4.2l.7-3.6c-1.2-.2-3.1-.3-4.1-.3-5.5.1-7.3 2.5-7.3 5.4m-21.7 3.6c-.4 0-.7-.1-1.1-.1-2.6 0-4 .8-4 2.4 0 1 .7 1.6 1.7 1.6 1.9 0 3.3-1.5 3.4-3.9zm3.2 6.9h-3.9l.1-1.6c-1.2 1.3-2.8 1.9-4.9 1.9-2.6 0-4.3-1.7-4.3-4.2 0-3.8 3-6 8.2-6 .6 0 1.2 0 1.9.1.2-.5.2-.7.2-1 0-1-.8-1.4-3-1.4-1.3 0-2.8.2-3.9.4l-.6.2-.4.1.7-3.5c2.3-.6 3.9-.8 5.6-.8 4 0 6.1 1.6 6.1 4.5 0 .8-.1 1.3-.4 3.1l-.9 5.5-.2 1-.1.8-.1.5-.1.4m13.1-9.5c0-.3.1-.6.1-.8 0-1.3-.8-2-2.2-2-1.5 0-2.6 1-3 2.8h5.1zm2.2 9.2c-1.6.4-3.2.6-4.8.6-5.3 0-7.9-2.4-7.9-6.9 0-5.3 3.5-9.2 8.2-9.2 3.9 0 6.3 2.2 6.3 5.6 0 1.1-.2 2.3-.6 3.8h-9.3c-.1.2-.1.3-.1.5 0 1.8 1.4 2.7 4.1 2.7 1.7 0 3.2-.3 4.9-1l-.8 3.9m45.2-8.6c0-1.6-.7-3.2-2.6-3.2-2.4 0-3.9 2.8-3.9 5.3 0 2.1 1 3.5 2.7 3.5 1 0 3.2-1.4 3.6-3.8.1-.4.2-1.1.2-1.8zm4.7 1.9c-.7 5.2-4.3 7.4-9.1 7.4-5.3 0-7.4-3.2-7.4-7.1 0-5.5 3.6-9.2 9.2-9.2 4.9 0 7.4 3.1 7.4 7 0 .9 0 1-.1 1.9"/><path fill="#FFF" d="M88.1 31.3h-4.7l2.8-14.6-6.4 14.6h-4.2l-.8-14.6L72 31.3h-4.2l3.6-19h7.3L79 24l5.2-11.8h7.6l-3.7 19.1m52.2-.3c-1.3.3-2.3.5-3.4.5-2.4 0-3.7-1.2-3.7-3.4 0-.4.1-.9.1-1.4l.3-1.5.2-1.2 2.2-11.8h4.6l-.7 3.6h2.4l-.7 3.8h-2.4l-1.2 6.5c-.1.3-.1.5-.1.6 0 .8.5 1.1 1.6 1.1.5 0 .9 0 1.2-.1l-.4 3.3"/><path fill="#231F20" d="M152.4 20.3l-.1-.5.9-2.4h-.3c-.3-.1-.4-.1-.4-.1h-.4c-1.6 0-2.6.7-4.1 2.5l.5-2.8h-4.9l-2.8 15.5h4.6c.6-3.5.9-5.6 1.3-7.2.6-2.8 2.7-4.1 4.2-3.8.2 0 .3 0 .5.1l.3.1.7-1.4"/><path fill="#FFF" d="M154 15.8c-.4-.2-.4-.2-.5-.2-.2-.1-.4-.1-.4-.1h-.5c-1.5 0-2.6.7-4.1 2.5l.4-2.4h-4.2l-2.8 15.5h4.7c1.7-9.5 2.4-11.1 4.6-11.1h.6l.6.1 1.6-4.3m-32.2 4.8c0 2 1.1 3.3 3.6 4.3 1.9.8 2.2 1 2.2 1.7 0 1-.8 1.4-2.7 1.4-1.5 0-2.7-.2-4.2-.6L120 31h.2l.8.2c.3.1.7.1 1.3.1 1.1.1 2 .1 2.6.1 5 0 7.3-1.6 7.3-5.2 0-2.1-.9-3.4-3.4-4.3-2-.8-2.2-1-2.2-1.7 0-.8.8-1.3 2.3-1.3.9 0 2.2.1 3.4.2l.7-3.6c-1.2-.2-3.1-.3-4.2-.3-5.2.2-7 2.6-7 5.4m-21.9 3.7c-.4 0-.7-.1-1.1-.1-2.6 0-4 .8-4 2.4 0 1 .6 1.6 1.7 1.6 1.9.1 3.3-1.6 3.4-3.9zm3.4 7h-3.9l.1-1.6c-1.2 1.3-2.8 1.9-4.9 1.9-2.5 0-4.2-1.7-4.2-4.2 0-3.8 3-6 8.2-6 .5 0 1.2 0 1.9.1.1-.5.2-.7.2-1 0-1-.8-1.4-3-1.4-1.3 0-2.8.2-3.9.4l-.7.2-.4.1.6-3.5c2.3-.6 3.9-.8 5.6-.8 4 0 6.1 1.6 6.1 4.5 0 .8-.1 1.3-.3 3.1l-1 5.5-.2 1-.1.8-.1.5v.4m12.9-9.5V21c0-1.3-.8-2-2.2-2-1.5 0-2.6 1-3 2.8h5.2zm2.4 9.1c-1.6.4-3.1.6-4.8.6-5.3 0-8-2.4-8-6.9 0-5.3 3.5-9.2 8.2-9.2 3.9 0 6.3 2.2 6.3 5.6 0 1.1-.2 2.3-.6 3.8h-9.3c-.1.2-.1.3-.1.5 0 1.8 1.4 2.7 4.1 2.7 1.7 0 3.2-.3 4.9-1l-.7 3.9m45.1-8.6c0-1.6-.7-3.2-2.6-3.2-2.4 0-3.9 2.8-3.9 5.3 0 2.1 1 3.5 2.7 3.5 1 0 3.2-1.4 3.6-3.8.1-.7.2-1.3.2-1.8zm4.9 2c-.7 5.2-4.3 7.4-9.1 7.4-5.3 0-7.4-3.2-7.4-7.1 0-5.5 3.6-9.2 9.2-9.2 4.9 0 7.4 3.1 7.4 7 0 .9 0 .9-.1 1.9"/></svg><svg viewBox="137 -73 310 190" width="310" height="190" id="mastercard" x="7286" y="7042"><path fill="#F90" d="M440 22.5c0 48.9-39.6 88.6-88.6 88.6-48.9 0-88.6-39.6-88.6-88.6 0-48.9 39.6-88.6 88.6-88.6 48.9 0 88.6 39.6 88.6 88.6z"/><path fill="#C00" d="M232-66.1c-48.6.3-88 39.9-88 88.6 0 48.9 39.7 88.6 88.6 88.6 23 0 43.9-8.7 59.6-23.1 3.2-2.9 6.2-6.1 9-9.5H283c-2.4-2.9-4.6-5.9-6.6-9.1h31.3c1.9-3.1 3.6-6.2 5.2-9.5h-41.6c-1.4-3-2.6-6.1-3.7-9.3h49c3-9.1 4.6-18.6 4.6-28.1 0-6.5-.7-12.9-2-19H265c.7-3.1 1.5-6.3 2.5-9.3h49.1c-1.1-3.2-2.4-6.4-3.8-9.5h-41.5c1.5-3.2 3.2-6.3 5.1-9.3h31.3c-2.1-3.3-4.4-6.5-6.9-9.5h-17.4c2.7-3.2 5.7-6.2 8.9-9-15.7-14.3-36.7-23.1-59.6-23.1l-.7.1z"/><path fill="#FFF" d="M264.4 45.1l1.2-8c-.6 0-1.6.3-2.4.3-3.3 0-3.6-1.7-3.4-3l2.7-16.4h5l1.2-8.9H264l1-5.5h-9.4c-.2.2-5.6 31-5.6 34.8 0 5.6 3.1 8 7.5 8 3.3-.1 6-1.1 6.9-1.3zm3-15.3c0 13.3 8.8 16.5 16.3 16.5 6.9 0 10-1.5 10-1.5l1.7-9.1s-5.3 2.3-10 2.3c-10.1 0-8.4-7.6-8.4-7.6h19.2s1.2-6.1 1.2-8.6c0-6.2-3.1-13.8-13.5-13.8-9.5 0-16.5 10.2-16.5 21.8zM284 16.4c5.3 0 4.3 6 4.3 6.5h-10.5c0-.6 1-6.5 6.2-6.5zm59.7 28.7l1.7-10.3s-4.6 2.3-7.8 2.3c-6.7 0-9.4-5.1-9.4-10.6 0-11.1 5.8-17.3 12.2-17.3 4.8 0 8.7 2.7 8.7 2.7l1.5-10S344.9-.4 340-.4c-10.9 0-21.5 9.4-21.5 27.2 0 11.8 5.7 19.5 17 19.5 3.1 0 8.2-1.2 8.2-1.2zm-131.2-37c-6.5 0-11.4 2.1-11.4 2.1l-1.4 8.1s4.1-1.7 10.3-1.7c3.5 0 6.1.4 6.1 3.3 0 1.7-.3 2.4-.3 2.4s-2.8-.2-4.1-.2c-8.2 0-16.7 3.5-16.7 14 0 8.3 5.6 10.2 9.1 10.2 6.7 0 9.5-4.3 9.7-4.3l-.3 3.6h8.3l3.7-26c0-11.1-9.6-11.5-13-11.5zm2.1 21.2c.2 1.6-1 9-6.7 9-2.9 0-3.7-2.2-3.7-3.6 0-2.6 1.4-5.7 8.3-5.7 1.6.1 1.8.3 2.1.3zM234.3 46c2.1 0 14.3.5 14.3-12 0-11.7-11.2-9.4-11.2-14.1 0-2.3 1.8-3.1 5.2-3.1 1.3 0 6.4.4 6.4.4l1.2-8.3s-3.3-.7-8.7-.7c-7 0-14.1 2.8-14.1 12.3 0 10.8 11.8 9.7 11.8 14.3 0 3-3.3 3.3-5.8 3.3-4.4 0-8.4-1.5-8.4-1.4l-1.3 8.2c.3 0 2.7 1.1 10.6 1.1zM421.9.7l-2 12.6s-3.6-4.9-9.1-4.9c-8.6 0-15.8 10.4-15.8 22.4 0 7.7 3.8 15.3 11.7 15.3 5.7 0 8.8-3.9 8.8-3.9l-.4 3.4h9.2L431.5.7h-9.6zm-4.4 24.6c0 5-2.5 11.6-7.6 11.6-3.4 0-5-2.8-5-7.3 0-7.3 3.3-12.1 7.4-12.1 3.4 0 5.2 2.3 5.2 7.8zm-256 20.3l5.7-33.9.8 33.9h6.5l12.1-33.9-5.4 33.9h9.7L198.3.7h-14.9l-9.3 27.6-.5-27.6h-13.8l-7.5 44.9h9.2zm145.3 0c2.7-15.6 3.3-28.3 9.8-26 1.1-6 2.3-8.4 3.5-10.9 0 0-.6-.1-1.8-.1-4.2 0-7.4 5.8-7.4 5.8l.8-5.3H303l-5.9 36.6h9.7v-.1zm58.7-37.5c-6.5 0-11.4 2.1-11.4 2.1l-1.4 8.1s4.1-1.7 10.3-1.7c3.5 0 6.1.4 6.1 3.3 0 1.7-.3 2.4-.3 2.4s-2.8-.2-4.1-.2c-8.2 0-16.7 3.5-16.7 14 0 8.3 5.6 10.2 9.1 10.2 6.7 0 9.5-4.3 9.7-4.3l-.3 3.6h8.3l3.7-26c-.1-11.1-9.7-11.5-13-11.5zm2 21.2c.2 1.6-1 9-6.7 9-2.9 0-3.7-2.2-3.7-3.6 0-2.6 1.4-5.7 8.3-5.7 1.7.1 1.8.3 2.1.3zM386 45.6c2.7-15.6 3.3-28.3 9.8-26 1.1-6 2.3-8.4 3.5-10.9 0 0-.6-.1-1.8-.1-4.2 0-7.4 5.8-7.4 5.8L391 9h-8.8l-5.9 36.6h9.7z"/></svg><svg viewBox="-5 -5 819 239" height="239" width="819" id="mir" x="7596" y="7232"><style id="axstyle3">.axst0,.axst1{fill-rule:evenodd;clip-rule:evenodd;fill:#4db45e}.axst1{fill:url(#axSVGID_1_)}</style><g id="axg5"><path id="axpath7" d="M218 0v.1c-.1 0-31.6-.1-40 30-7.7 27.6-29.4 103.8-30 105.9h-6s-22.2-77.9-30-106C103.6-.1 72 0 72 0H0v229h72V93h6l42 136h50l42-135.9h6V229h72V0h-72z" class="axst0"/></g><g id="axg9"><path id="axpath11" d="M481 0s-21.1 1.9-31 24l-51 112h-6V0h-72v229h68s22.1-2 32-24l50-112h6v136h72V0h-68z" class="axst0"/></g><g id="axg13"><path id="axpath15" d="M581 104v125h72v-73h78c34 0 62.8-21.7 73.5-52H581z" class="axst0"/></g><g id="axg17"><linearGradient y2="47" x2="809" y1="47" x1="570.919" gradientUnits="userSpaceOnUse" id="axSVGID_1_"><stop id="axstop20" offset=".3" stop-color="#00b4e6"/><stop id="axstop22" offset="1" stop-color="#088ccb"/></linearGradient><path id="axpath24" d="M731 0H570.9c8 43.6 40.7 78.6 83 90 9.6 2.6 19.7 4 30.1 4h123.4c1.1-5.2 1.6-10.5 1.6-16 0-43.1-34.9-78-78-78z" class="axst1"/></g></svg><svg viewBox="435 -47 138 138" width="138" height="138" id="pers_account" x="8415" y="7471"><path d="M555.1 54.6l-.5-.1c-6.6-1.8-8.9-3.5-11.8-4.6-10.4-4-13.2-6.9-13.9-8.2 0 0 0-.1-.1-.1l-.1-9.1c5.6-7.5 9.6-16.8 9.6-26.5 0 0 3.8-16.1-5.3-31.2v-.1c-2-3.3-4.5-6.5-7.8-9.5-3.5-3.1-12-7.1-22.4-7.1-7.1 0-15 1.9-22.6 7.1C465.3-24.6 466.8 1 466.8 1s1 .3 2.9.5c-.1 1.5-.2 2.9-.2 4.4 0 9.7 4 19 9.6 26.5l-.1 9.1s0 .1-.1.1c-.7 1.4-3.4 4.2-13.9 8.2-2.9 1.1-5.2 2.8-11.8 4.6l-.5.1c-6 2-10.1 7.6-10.1 13.9V86h122.3V68.5c.2-6.3-3.8-11.9-9.8-13.9zm-24.5-73.3c1.5 3.3 2.5 7 2.9 10.8.1.6.1 1.2.2 1.8-.9-1.6-1.8-3-2.9-4.2-1.2-1.3-2.5-2.4-3.9-3.2 1.1-2.7 2.5-4.3 3.7-5.2zm-57.3 6.3c.8-3.9 1.9-7.4 3.4-10.3 1.7-3.4 3.9-6 6.6-7.8 6-4.1 12.6-6.2 19.6-6.2 9.1 0 16.3 3.5 18.8 5.7s4.6 4.8 6.3 7.5c-2.1 1.4-4.5 3.9-6.1 8-.9-.2-1.8-.2-2.7-.2-4 0-8.3 1.3-13.1 4.1-11.7 6.7-22.5 8.1-29.5 8.1-1.7 0-3.1-.1-4.4-.2.2-2.3.4-5.4 1.1-8.7zm18.3 93.1h-43.4V68.5c0-4 2.5-7.5 6.3-8.8l.3-.1c5-1.3 7.7-2.7 10-3.7.9-.4 1.6-.8 2.3-1 3.9-1.5 8.9-3.6 12.5-6.2l11.3 5.9 2-1.7 1.4 6.9-2.7 20.9zm-8.1-36l.3-.6c.1-.1.1-.3.2-.4l.4-1v-4.2c2.9 2.8 5.9 5.2 8.9 7l-3.3 2.8-6.5-3.6zm20.5 36h-7.1l2.4-18.7h9.4l2.7 18.7H504zM497.5 49l1.3-1.1c1.8.6 3.6.9 5.2.9 1.7 0 3.6-.4 5.5-1l1.1.9-1.6 8h-10l-1.5-7.7zm6.5-5.6c-2.2 0-5.1-1-8.2-2.8-3.4-2-6.9-5-9.9-8.4-7-7.9-11-17.5-11-26.3 0-1.4.1-2.7.2-4h1.5c7.8 0 19.5-1.6 32.1-8.8 4.2-2.4 7.7-3.4 10.5-3.4 6.7 0 9.8 5.7 11.6 10.9.6 1.8 1.4 3 2.2 3.8v1.5c0 8.8-4 18.4-11 26.3-3.1 3.5-6.5 6.4-9.9 8.4-3 1.8-5.9 2.8-8.1 2.8zm20.6 1.4l-6.4 3.3-3.4-2.9c2.9-1.7 5.9-4 8.7-6.8v4.2l.4 1c0 .1.1.2.2.4.2.3.4.6.5.8zm16.9 35.9h-16v-5.3h16v5.3zm18.3 0h-12.9V70h-8c0-1.5-1.2-2.7-2.7-2.7h-5.3c-1.5 0-2.7 1.2-2.7 2.7h-8v10.7h-3.4l-3-20.8 1.5-7.3 2.3 2 11.1-5.8c3.6 2.6 8.4 4.6 12.3 6.1.7.3 1.5.6 2.3 1 2.2 1.1 5 2.4 10 3.7l.3.1c3.8 1.3 6.3 4.8 6.3 8.8v12.2h-.1z"/></svg><svg version="1" viewBox="219 249 37 37" width="37" height="37" id="phone" x="8553" y="7609"><path fill="#fff" d="M251 276.2c-.1-.6-.5-1.2-1-1.5l-6.7-3.8c-.8-.5-1.9-.3-2.5.3l-1.3 1.3c-.3.3-.9.4-1.3.1-1-.8-2.1-1.7-3-2.7-1-1-1.9-2-2.7-3-.3-.4-.3-.9.1-1.3l1.3-1.3c.7-.7.8-1.7.3-2.5l-3.8-6.7c-.3-.6-.9-.9-1.5-1-.6-.1-1.3.1-1.7.6l-2 2c-1.4 1.4-1.4 3.9-.1 7.1 1.3 3.1 3.7 6.5 6.8 9.5 3.1 3.1 6.5 5.5 9.5 6.8 1.6.7 3 1 4.2 1 1.2 0 2.2-.4 2.9-1.1l2-2c.4-.5.6-1.1.5-1.8zm-8.1-4.6l6.7 3.8c.3.2.5.5.6.9 0 .3 0 .6-.2.9l-8.9-5.1.4-.4c.3-.3.9-.4 1.4-.1zm-14.2-16.7c.4 0 .7.3.9.6l3.8 6.7c.3.5.2 1.1-.2 1.5l-.3.3-5.1-8.8c.2-.2.5-.2.7-.2.1-.1.1-.1.2-.1zm19.1 24.4c-1.1 1.1-3.3 1.1-6.2-.1-3-1.2-6.3-3.6-9.3-6.6-3-3-5.3-6.3-6.6-9.3-1.2-2.8-1.2-5.1-.1-6.2l1.5-1.5 5.1 8.8-.3.3c-.7.7-.7 1.7-.1 2.5a41.21 41.21 0 0 0 5.9 5.9c.7.6 1.8.5 2.5-.1l.3-.3 8.9 5.1-1.6 1.5z"/></svg><svg version="1" viewBox="219 249 37 37" width="37" height="37" id="phone_v2" x="8590" y="7646"><path fill="#073F5C" d="M251 276.2c-.1-.6-.5-1.2-1-1.5l-6.7-3.8c-.8-.5-1.9-.3-2.5.3l-1.3 1.3c-.3.3-.9.4-1.3.1-1-.8-2.1-1.7-3-2.7-1-1-1.9-2-2.7-3-.3-.4-.3-.9.1-1.3l1.3-1.3c.7-.7.8-1.7.3-2.5l-3.8-6.7c-.3-.6-.9-.9-1.5-1-.6-.1-1.3.1-1.7.6l-2 2c-1.4 1.4-1.4 3.9-.1 7.1 1.3 3.1 3.7 6.5 6.8 9.5 3.1 3.1 6.5 5.5 9.5 6.8 1.6.7 3 1 4.2 1 1.2 0 2.2-.4 2.9-1.1l2-2c.4-.5.6-1.1.5-1.8zm-8.1-4.6l6.7 3.8c.3.2.5.5.6.9 0 .3 0 .6-.2.9l-8.9-5.1.4-.4c.3-.3.9-.4 1.4-.1zm-14.2-16.7c.4 0 .7.3.9.6l3.8 6.7c.3.5.2 1.1-.2 1.5l-.3.3-5.1-8.8c.2-.2.5-.2.7-.2.1-.1.1-.1.2-.1zm19.1 24.4c-1.1 1.1-3.3 1.1-6.2-.1-3-1.2-6.3-3.6-9.3-6.6-3-3-5.3-6.3-6.6-9.3-1.2-2.8-1.2-5.1-.1-6.2l1.5-1.5 5.1 8.8-.3.3c-.7.7-.7 1.7-.1 2.5a41.21 41.21 0 0 0 5.9 5.9c.7.6 1.8.5 2.5-.1l.3-.3 8.9 5.1-1.6 1.5z"/></svg><svg viewBox="-5 -5 522 522" width="522" height="522" id="pin" x="8627" y="7683"><path fill="#c21b23" d="M474.962 117.094l-80.056-80.056L235.88 179.284l6.465 90.373 90.372 6.464z"/><path d="M491.743 150.658l-130.4-130.401c-4.634-4.634-4.634-12.148 0-16.781 4.634-4.634 12.147-4.634 16.781 0l130.401 130.401c4.634 4.634 4.634 12.147 0 16.781-4.634 4.634-12.147 4.634-16.782 0z" fill="#ee3840"/><path fill="#ccc4c1" d="M188.018 297.133L11.746 473.404 0 512l38.597-11.746 176.27-176.27z"/><path d="M332.717 276.121l-96.837-96.837c-59.731-22.719-129.85-10.026-177.966 38.09l236.712 236.713c48.117-48.115 60.81-118.236 38.091-177.966z" fill="#ee3840"/></svg><svg viewBox="-1 6 34 34" width="34" height="34" id="plus" x="9149" y="8205"><path fill="#FFF" d="M27 21h-8.5c-.3 0-.5-.2-.5-.5V12c0-.6-.4-1-1-1h-2c-.6 0-1 .4-1 1v8.5c0 .3-.2.5-.5.5H5c-.6 0-1 .4-1 1v2c0 .6.4 1 1 1h8.5c.3 0 .5.2.5.5V34c0 .6.4 1 1 1h2c.6 0 1-.4 1-1v-8.5c0-.3.2-.5.5-.5H27c.6 0 1-.4 1-1v-2c0-.6-.4-1-1-1z"/></svg><svg viewBox="225 -223 490 490" width="490" height="490" id="pvh_temp" x="9183" y="8239"><path fill="#74a3c7" d="M695.3-69.6c-10.5-11.9-25.5-18.7-41.4-18.7h-151c-37.1 0-72.2 14.2-98.8 40L233.7 116.8c-2.6 2.6-3.5 6.4-2.1 9.8 1.4 3.4 4.7 5.6 8.3 5.6h440.6c4.5 0 8.4-3.4 8.9-7.9l19.1-150.6c2.1-15.6-2.7-31.5-13.2-43.3zM299.5 114.3l59.2-57.4v57.4h-59.2zm77.2 0V39.4l58-56.2c18.4-17.8 42.6-27.6 68.2-27.6h64.9V29c0 3.1 1.6 5.9 4.1 7.6 2.6 1.7 5.8 1.9 8.6.6 16.2-7.5 34.6-8.6 51.6-3.2l23.6 7.5-9.2 72.8H376.7zM665.1-31.8L659 16.5l-60.9-60.9H654c3.3 0 6.3 1.4 8.4 3.8 2.1 2.4 3.1 5.6 2.7 8.8zm-79.3.6l46.5 46.5c-15.4-3.9-31.4-3.6-46.5.7v-47.2zm105 2.7l-18.1 142.8h-8L683-29.5c1.1-8.3-1.5-16.7-7.1-23s-13.5-9.9-21.9-9.9H503c-30.3 0-59 11.6-80.8 32.7l-148.5 144h-11.4L416.6-35.4c23.3-22.5 53.9-34.9 86.3-34.9h151c10.7 0 20.8 4.6 27.9 12.6 7 8 10.3 18.6 9 29.2z"/></svg><svg viewBox="234.1 -232.1 508 508" width="508" height="508" id="question" x="9673" y="8729"><linearGradient id="bea" gradientUnits="userSpaceOnUse" x1="961.049" y1="-.299" x2="961.049" y2=".705" gradientTransform="matrix(496.158 0 0 496.152 -476341.969 -78.54)"><stop offset="0" stop-color="#8ed0f3"/><stop offset="1" stop-color="#188bc4"/></linearGradient><path fill="url(#bea)" d="M736.2 21.9c0-137-111.1-248.1-248.1-248.1S240-115.1 240 21.9 351.1 270 488.1 270 736.2 158.9 736.2 21.9z"/><path fill="#FFF" d="M378.2-52.6c0-13.9 4.5-28 13.4-42.3 8.9-14.3 22-26.1 39.1-35.5 17.1-9.4 37.1-14.1 60-14.1 21.2 0 40 3.9 56.3 11.8 16.3 7.8 28.8 18.5 37.7 32 8.9 13.5 13.3 28.1 13.3 43.9 0 12.5-2.5 23.4-7.6 32.7-5.1 9.4-11.1 17.5-18 24.3-7 6.8-19.4 18.3-37.5 34.4-5 4.5-9 8.5-12 12-3 3.4-5.2 6.6-6.7 9.4-1.5 2.9-2.6 5.7-3.4 8.6-.8 2.9-2 7.9-3.6 15.1-2.8 15.2-11.5 22.9-26.1 22.9-7.6 0-14-2.5-19.2-7.5-5.2-5-7.8-12.4-7.8-22.2 0-12.3 1.9-23 5.7-32 3.8-9 8.9-16.9 15.2-23.7 6.3-6.8 14.8-14.9 25.5-24.3 9.4-8.2 16.2-14.4 20.3-18.6s7.7-8.8 10.5-14c2.9-5.1 4.3-10.7 4.3-16.7 0-11.7-4.4-21.6-13.1-29.7-8.7-8.1-20-12.1-33.7-12.1-16.1 0-28 4.1-35.6 12.2-7.6 8.1-14.1 20.1-19.3 35.9-5 16.6-14.4 24.8-28.3 24.8-8.2 0-15.1-2.9-20.8-8.7-5.8-5.6-8.6-11.8-8.6-18.6zm107.2 240.9c-8.9 0-16.7-2.9-23.4-8.7-6.7-5.8-10-13.9-10-24.3 0-9.2 3.2-17 9.7-23.3 6.4-6.3 14.4-9.4 23.7-9.4 9.2 0 17 3.2 23.3 9.4 6.3 6.3 9.4 14.1 9.4 23.3 0 10.3-3.3 18.3-9.9 24.2-6.5 5.8-14.1 8.8-22.8 8.8z"/></svg><svg viewBox="12.5 -10.5 64 64" width="64" height="64" id="search" x="10181" y="9237"><path d="M69.7 46.3L54.8 30.9c3.8-3.8 6.1-9 6.1-14.8C61 4.5 51.6-5 40-5S19 4.5 19 16s9.4 21 21 21c5.1 0 9.7-1.8 13.4-4.8l14.9 15.5c.2.2.5.3.7.3.3 0 .5-.1.7-.3.4-.4.4-1 0-1.4zM40 35c-10.5 0-19-8.5-19-19S29.5-3 40-3s19 8.5 19 19-8.5 19-19 19z"/></svg><svg viewBox="279.5 -54.2 468 274" width="468" height="274" id="split" x="10245" y="9301"><title>background</title><path fill="none" d="M202-220h582v402H202z"/><g fill="#fff"><title>Layer 1</title><path d="M734.9 109.9L683.2-17.4c-1.4-3.6-7.8-17.9-23.7-25.5-8.8-4.2-23.5-7.7-43.8-.6-26.1 9.2-71.4 12.4-102.2 12.4-26.6 0-78.4-4.4-102.5-12.5-10.8-3.6-20.9-4.7-30.3-3.2-8.3 1.3-15.7 4.6-22.2 9.6-9.6 7.6-13.7 16.9-14.8 19.9l-51.6 127.2c-2.2 4.6-10.6 25-3.1 44.9 3.2 8.5 10.5 20.1 27.4 27.1 19.1 8 48.1 16 79.7 21.9 27.2 5.2 69.7 11.3 117.5 11.3s90.3-6.2 117.5-11.3c31.5-6 60.6-14 79.7-21.9 16.9-7 24.2-18.6 27.4-27.1 7.3-19.9-1.2-40.3-3.3-44.9zM451.4 1.5c23 2.8 46.5 4.1 62 4.1 17.2 0 76.1-1 114.4-14.5 5.2-1.8 12.3-3.3 16.8-.3 2.4 1.6 3.6 4 4 4.7.1.3.1.1.3.6L700.8 124l.6 1.2c1.3 2.7 4.1 11.4 2.1 16.7-.4 1-1.4 3.6-7 6-16.6 6.9-43.7 14.3-72.4 19.8-25.7 4.9-65.7 10.7-110.6 10.7-44.9 0-84.9-5.8-110.6-10.7-28.7-5.4-55.8-12.8-72.4-19.8-5.6-2.3-6.6-4.9-7-5.9-2-5.1.5-13.3 2-16.6.2-.5.3-.7.5-1.2L378-3.7l.3-.9s1.2-2.2 3.1-3.7c3.7-3 9.7-3.1 17.9-.4 1.3.4 2.6.9 4 1.3"/><path d="M648.5 94.4c-.1-1.3-1.2-2.2-2.5-2.1l-13.4 1c-1.1-8.3-4.7-15.8-10-21.6L636 61.4c1.1-.8 1.2-2.4.3-3.4-.8-.9-2.2-.9-3.2-.2l-22.4 17.3-10.5-4.7-1.5-25.8c-.1-1.3-1.2-2.3-2.5-2.2-1.3.1-2.3 1.2-2.2 2.5l.8 14.1h-1.4c-19 0-34.8 13.4-38.7 31.2L539 87.8c-1.3-.2-2.5.7-2.7 2s.7 2.5 2 2.7l28.1 4.3 5.6 21.9-17.4 27.5c-.7 1-.5 2.4.5 3.2.4.3.9.5 1.4.5.8 0 1.5-.4 2-1.1l11.5-18.2c5.6 4.1 12.2 6.7 19.4 7.4v-.2c-1.7 8.1-2.2 10.6-2.4 11.4-.2 1.4.7 2.7 2.1 2.8 1.3.1 2.3-.9 2.5-2.1s2.8-13.6 4.8-22.6l4.2-.7 9.2 18.2c.6 1.1 2 1.6 3.1 1 1.1-.6 1.6-2 1-3.1l-4.1-8.2c2.2-1 4.2-2.2 6.1-3.5l1 3c.3 1 1.2 1.6 2.2 1.6.3 0 .7-.1 1-.2 1.1-.5 1.6-1.8 1.2-3l-4.7-14 2-.9 16.2 17.4c.5.5 1.1.7 1.7.7.6 0 1.1-.2 1.6-.6.9-.9 1-2.4.1-3.3l-16.9-19.1 2.2-13.6 22.6-1.7c1.6-.5 2.5-1.7 2.4-2.9zm-67.8 3.9c0-7 5.7-12.7 12.7-12.7s12.7 5.7 12.7 12.7-5.7 12.7-12.7 12.7-12.7-5.7-12.7-12.7zm9 38.7v-.2.2zm.1-.6v-.2c.1 0 .1.1 0 .2zm.2-.7c0-.1 0-.2.1-.3-.1.1-.1.2-.1.3zm.1-.7c.1-.4.2-.7.2-1.1 0 .3-.1.7-.2 1.1zm.5-2c0-.1.1-.3.1-.4-.1.1-.1.3-.1.4zm.2-1v-.1.1zm.1-.8c0-.1 0-.2.1-.3 0 .1 0 .2-.1.3zm.2-.8c0-.2.1-.3.1-.5 0 .2-.1.4-.1.5zm.8 19.2v-.2.2z"/></g></svg><svg viewBox="199.3 -197.3 438 438" width="438" height="438" id="star" x="10713" y="9575"><path fill="#FAC917" d="M418.3-181.2l65.9 133.6 147.4 21.4L525 77.7l25.2 146.8-131.8-69.3-131.8 69.3 25.2-146.8L205-26.2l147.4-21.4 65.9-133.6z"/></svg><svg viewBox="244 -240 524 524" width="524" height="524" id="tools" x="11151" y="10013"><path fill="#E0E0E0" d="M600.1 77.8l-53-53c-7.1 3.5-14.1 7.1-16.8 10.6-7.9 7.1-7.1 21.2-7.1 30.9l-5.3 5.3 44.1 44.1c23.8 23.8 53 66.2 75 99.8l.9-.9c0-19.4 9.7-38.8 27.4-51.2 9.7-7.1 22.1-9.7 33.5-10.6l.9-.9c-33.4-21.1-75.8-50.2-99.6-74.1M461.5 4.5c9.7.9 23.8.9 30.9-6.2 3.5-3.5 7.1-9.7 10.6-16.8l-53-53c-30-30-55.6-61.8-75-99.8l-.9.9c0 19.4-9.7 38.8-27.4 51.2-9.7 5.3-21.2 8.8-33.5 8.8l-.9.9c38 19.4 69.7 45 99.8 75l44.1 44.1 5.3-5.1z"/><path fill="#C3C7CB" d="M306.1-233.8l27.4 47.7-1.8 4.4c-7.1 15-23 23.8-38.8 23h-4.4l-27.4-46.8c-17.7 26.5-12.4 64.4 15.9 84.7 20.3 15 48.6 15 69.7.9 33.5-23 36.2-68 9.7-95.3-14.1-14.2-31.8-20.4-50.3-18.6M706 276.4l-27.4-47.6 1.8-4.4c7.1-15 23-23.8 38.8-23h4.4l26.5 46.8c17.7-26.5 12.4-64.4-15.9-84.7-20.3-15-48.6-15-69.7-.9-33.5 23-36.2 68-9.7 95.3 15 14.1 33.5 20.3 51.2 18.5"/><path fill="#E15649" d="M572.7 17.8L510-44.9l181.8-181c10.6-10.6 28.2-10.6 38.8 0l23.8 23.8c10.6 10.6 10.6 28.2 0 38.8L572.7 17.8zm-74.2 74.1l-62.7-62.7 25.6-24.7 61.8 61.8-24.7 25.6z"/><path fill="#BC342E" d="M523.3 66.3c-.9-9.7 0-23.8 7.1-30.9s32.7-18.5 42.4-17.7L510.1-45c.9 9.7-9.7 35.3-17.7 42.4-6.2 8-21.2 7.1-30.9 7.1l61.8 61.8z"/><path fill="#C3C7CB" d="M254.9 235.8l-5.3 42.4 43.3-6.2 26.5-38.8-25.7-24.7-38.8 27.3z"/><path fill="#E0E0E0" d="M454.4 48.7L293.7 209.4l24.7 24.7L479.1 73.4l-24.7-24.7z"/><path fill="#BC342E" d="M567.4-30.8c-2.6 0-4.4-.9-6.2-2.6-3.5-3.5-3.5-8.8 0-12.4l150.1-150.1c3.5-3.5 8.8-3.5 12.4 0 3.5 3.5 3.5 8.8 0 12.4L573.6-33.4c-1.8 1.8-3.6 2.6-6.2 2.6"/><path fill="#C3C7CB" d="M593.9 121.1l-13.3 13.2c3.5 4.4 7.1 8.8 10.6 14.1 0 0 .9 0 .9-.9l14.1-14.1c3.5-3.5 3.5-8.8 0-12.4-3.5-3.5-8.8-3.5-12.3.1m24.7 25.6l-16.8 16.8c3.5 4.4 7.1 9.7 10.6 14.1l.9-.9L631 159c3.5-3.5 3.5-8.8 0-12.4-3.6-3.5-8.9-3.5-12.4.1"/></svg><svg width="25" height="54" viewBox="-5 -5 25 54" id="triangle_gray" x="11675" y="10537"><path fill="none" stroke="#d7d7d7" stroke-width="2" stroke-linecap="square" stroke-miterlimit="10" d="M0 0l14.7 21c.4.6.4 1.5 0 2.1L0 44"/></svg><svg width="25" height="54" viewBox="-5 -5 25 54" id="triangle_green" x="11700" y="10591"><path fill="#2CCA70" d="M0 0l14.7 21c.4.6.4 1.5 0 2.1L0 44V0z"/></svg><svg width="25" height="54" viewBox="-5 -5 25 54" id="triangle_white" x="11725" y="10645"><path fill="#fff" stroke="#2cca70" stroke-width="2" stroke-linecap="square" stroke-miterlimit="10" d="M0 0l14.7 21c.4.6.4 1.5 0 2.1L0 44"/></svg><svg viewBox="3 2 42 42" width="42" height="42" id="twogis" x="11750" y="10699"><title>icon 2gis</title><path fill="#FEFEFE" d="M40 34.5c0 2.2-1.8 3.9-4 3.9H12c-2.2 0-4-1.8-4-3.9V10.9C8 8.8 9.8 7 12 7h24c2.2 0 4 1.8 4 3.9v23.6z"/><path fill="#FFC72E" d="M12.6 11.5c1.3.3 22.9 3.9 27.1 4.6V11c0-2.2-1.8-3.9-4-3.9h-24c-1 0-2 .4-2.7 1 .7 2.3 1.7 3 3.6 3.4"/><path fill="#4FB74E" d="M14.9 36.4l19-3.8s5.8-1.1 5.8-7.1V18L10 13l4.9 23.4zm-1.5-2.2c-.1-.4-3.5-16.5-5.1-24.2-.2.4-.3.9-.3 1.4V35c0 1 .4 1.9 1 2.6.8-.2 1.6-.3 2.3-.5 1.9-.4 2.2-2.3 2.1-2.9"/><path fill="#6DBF63" d="M9.7 38.3c.5.2 1.5.4 2 .4h2.5l-.2-1.1m20.7-4.2l-19.6 3.9.3 1.4h20.3c2.2 0 4-1.8 4-3.9v-4.9c-1.7 2.9-5 3.5-5 3.5"/><path fill="#FEFEFE" d="M21.8 35.4V34c0-6.3-.4-9.4-3.5-9.7H16l-.3-1c-.7-2.4-.7-3.4-.6-4.5v-.4c0-4.7 3.9-8.5 8.6-8.5 4.7 0 8.6 3.7 8.6 8.4.1.6.2 2.3-.6 5l-.3 1h-2.2c-3 .4-3.5 3.6-3.5 9.9v.6l-3.9.6z"/><linearGradient id="bma" gradientUnits="userSpaceOnUse" x1="39.307" y1="-158.3" x2="39.307" y2="-136.64" gradientTransform="matrix(1.0123 0 0 -.9959 -15.95 -124.346)"><stop offset="0" stop-color="#1063b0"/><stop offset="1" stop-color="#0cbde5"/></linearGradient><path fill="url(#bma)" d="M16.5 18.3c0 1.5.3 3.4.7 4.7h1.1c5.1.4 4.9 5.9 4.9 11.5 0 0 .8-.1 1.2-.1 0-5.6 0-10.9 4.9-11.4h1.2c.4-1.3.7-3.2.7-4.7 0-3.9-3.3-7.2-7.3-7.2s-7.4 3.3-7.4 7.2"/></svg><svg viewBox="-5 -5 514 514" width="514" height="514" id="visa" x="11792" y="10741"><path fill="#3c58bf" d="M184.8 324.4l25.6-144h40l-24.8 144z"/><path fill="#293688" d="M184.8 324.4l32.8-144h32.8l-24.8 144z"/><path d="M370.4 182c-8-3.2-20.8-6.4-36.8-6.4-40 0-68.8 20-68.8 48.8 0 21.6 20 32.8 36 40s20.8 12 20.8 18.4c0 9.6-12.8 14.4-24 14.4-16 0-24.8-2.4-38.4-8l-5.6-2.4-5.6 32.8c9.6 4 27.2 8 45.6 8 42.4 0 70.4-20 70.4-50.4 0-16.8-10.4-29.6-34.4-40-14.4-7.2-23.2-11.2-23.2-18.4 0-6.4 7.2-12.8 23.2-12.8 13.6 0 23.2 2.4 30.4 5.6l4 1.6 6.4-31.2z" fill="#3c58bf"/><path d="M370.4 182c-8-3.2-20.8-6.4-36.8-6.4-40 0-61.6 20-61.6 48.8 0 21.6 12.8 32.8 28.8 40s20.8 12 20.8 18.4c0 9.6-12.8 14.4-24 14.4-16 0-24.8-2.4-38.4-8l-5.6-2.4-5.6 32.8c9.6 4 27.2 8 45.6 8 42.4 0 70.4-20 70.4-50.4 0-16.8-10.4-29.6-34.4-40-14.4-7.2-23.2-11.2-23.2-18.4 0-6.4 7.2-12.8 23.2-12.8 13.6 0 23.2 2.4 30.4 5.6l4 1.6 6.4-31.2z" fill="#293688"/><path d="M439.2 180.4c-9.6 0-16.8.8-20.8 10.4l-60 133.6h43.2l8-24h51.2l4.8 24H504l-33.6-144h-31.2zm-18.4 96c2.4-7.2 16-42.4 16-42.4s3.2-8.8 5.6-14.4l2.4 13.6s8 36 9.6 44h-33.6v-.8z" fill="#3c58bf"/><path d="M448.8 180.4c-9.6 0-16.8.8-20.8 10.4l-69.6 133.6h43.2l8-24h51.2l4.8 24H504l-33.6-144h-21.6zm-28 96c3.2-8 16-42.4 16-42.4s3.2-8.8 5.6-14.4l2.4 13.6s8 36 9.6 44h-33.6v-.8z" fill="#293688"/><path d="M111.2 281.2l-4-20.8c-7.2-24-30.4-50.4-56-63.2l36 128h43.2l64.8-144H152l-40.8 100z" fill="#3c58bf"/><path d="M111.2 281.2l-4-20.8c-7.2-24-30.4-50.4-56-63.2l36 128h43.2l64.8-144H160l-48.8 100z" fill="#293688"/><path d="M0 180.4l7.2 1.6c51.2 12 86.4 42.4 100 78.4l-14.4-68c-2.4-9.6-9.6-12-18.4-12H0z" fill="#ffbc00"/><path d="M0 180.4c51.2 12 93.6 43.2 107.2 79.2l-13.6-56.8c-2.4-9.6-10.4-15.2-19.2-15.2L0 180.4z" fill="#f7981d"/><path d="M0 180.4c51.2 12 93.6 43.2 107.2 79.2l-9.6-31.2c-2.4-9.6-5.6-19.2-16.8-23.2L0 180.4z" fill="#ed7c00"/><path d="M151.2 276.4L124 249.2l-12.8 30.4-3.2-20c-7.2-24-30.4-50.4-56-63.2l36 128h43.2l20-48zm74.4 48l-34.4-35.2-6.4 35.2zm92-49.6c3.2 3.2 4.8 5.6 4 8.8 0 9.6-12.8 14.4-24 14.4-16 0-24.8-2.4-38.4-8l-5.6-2.4-5.6 32.8c9.6 4 27.2 8 45.6 8 25.6 0 46.4-7.2 58.4-20l-34.4-33.6zm46.4 49.6h37.6l8-24h51.2l4.8 24H504L490.4 266l-48-46.4 2.4 12.8s8 36 9.6 44h-33.6c3.2-8 16-42.4 16-42.4s3.2-8.8 5.6-14.4" fill="#051244"/></svg><svg viewBox="15.2 -11.2 66 66" width="66" height="66" id="visa-2" x="12306" y="11255"><path fill="#FFF" d="M22.7 12.5h51.2v19.6H22.7z"/><path fill="#0059A4" d="M74.8 3.8H21.7c-.8 0-1.4.6-1.4 1.4v33.1c0 .8.6 1.4 1.4 1.4h53.1c.8 0 1.4-.6 1.4-1.4V5.2c0-.8-.6-1.4-1.4-1.4zM24.6 14.6h6c.8 0 1.5.3 1.7 1.1l1.3 6.2c-1.3-3.2-4.4-5.9-9-7.1-.1.1 0-.2 0-.2zm7.2 14.2l-3.5-11.7c2.5 1.6 4.6 4.1 5.3 5.8l.4 1.4 3.8-9.6H42l-6.1 14c0 .1-4.1.1-4.1.1zm13.2 0h-3.9l2.4-14h3.9l-2.4 14zm6.7.2c-1.7 0-3.4-.4-4.3-.7l.5-3.1.5.2c1.3.5 2.1.7 3.6.7 1.1 0 2.3-.4 2.3-1.4 0-.6-.5-1.1-2-1.7-1.5-.7-3.4-1.8-3.4-3.8 0-2.7 2.7-4.6 6.5-4.6 1.5 0 2.7.3 3.5.6l-.5 3-.3-.2c-.9-.4-1.9-.6-2.9-.5-1.5 0-2.2.6-2.2 1.2 0 .7.8 1.1 2.2 1.7 2.2 1 3.3 2.2 3.2 3.8 0 2.9-2.7 4.8-6.7 4.8zm16.7-.2s-.4-1.6-.5-2.1H63c-.1.4-.8 2.1-.8 2.1h-4l5.7-12.9c.4-.9 1.1-1.2 2-1.2h3l3.1 14c0 .1-3.6.1-3.6.1z"/><path fill="#0059A4" d="M66.3 18.5c-.2.5-.5 1.4-.5 1.4l-1.5 4h3.2l-.9-4.1-.3-1.3z"/></svg><svg viewBox="261.2 -257.2 558 558" width="558" height="558" id="vk" x="12372" y="11321"><path fill="#fff" d="M811.3 147.6c-.7-1.4-1.3-2.6-1.9-3.6-9.5-17.1-27.7-38.1-54.5-62.9l-.6-.6-.3-.3-.3-.3h-.3c-12.2-11.6-19.9-19.4-23.1-23.4-5.9-7.6-7.2-15.3-4-23.1 2.3-5.9 10.8-18.3 25.7-37.3 7.8-10.1 14-18.1 18.5-24.2 32.9-43.7 47.2-71.6 42.8-83.7l-1.7-2.8c-1.1-1.7-4.1-3.3-8.8-4.7-4.8-1.4-10.8-1.7-18.3-.7l-82.2.6c-1.3-.5-3.2-.4-5.7.1l-3.7.9-1.4.7-1.1.9c-1 .6-2 1.6-3.1 3s-2.1 3.1-2.8 5c-8.9 23-19.1 44.3-30.5 64.1-7 11.8-13.5 22-19.4 30.6-5.9 8.6-10.8 15-14.8 19.1-4 4.1-7.6 7.4-10.8 9.8-3.2 2.5-5.7 3.5-7.4 3.1-1.7-.4-3.3-.8-4.9-1.1-2.7-1.7-4.8-4-6.4-7-1.6-2.9-2.7-6.6-3.3-11.1-.6-4.5-.9-8.3-1-11.5-.1-3.2 0-7.8.1-13.7.2-5.9.3-9.9.3-12 0-7.2.1-15 .4-23.5.3-8.4.5-15.1.7-20.1.2-4.9.3-10.2.3-15.7s-.3-9.8-1-13c-.7-3.1-1.7-6.2-3-9.1-1.3-2.9-3.3-5.2-5.8-6.8-2.6-1.6-5.8-2.9-9.6-3.8-10.1-2.3-22.9-3.5-38.5-3.7-35.4-.4-58.1 1.9-68.2 6.8-4 2.1-7.6 4.9-10.8 8.5-3.4 4.2-3.9 6.5-1.4 6.8 11.4 1.7 19.5 5.8 24.3 12.2l1.7 3.4c1.3 2.5 2.7 6.8 4 13.1 1.3 6.3 2.2 13.2 2.6 20.8.9 13.9.9 25.7 0 35.6-1 9.9-1.9 17.6-2.7 23.1s-2.1 10-3.9 13.4c-1.7 3.4-2.9 5.5-3.4 6.3-.6.8-1 1.2-1.4 1.4-2.5.9-5.1 1.4-7.7 1.4-2.7 0-5.9-1.3-9.7-4-3.8-2.7-7.7-6.3-11.8-11-4.1-4.7-8.7-11.2-13.8-19.5-5.1-8.4-10.5-18.2-16-29.6l-4.6-8.3c-2.9-5.3-6.8-13-11.7-23.2-4.9-10.2-9.3-20-13.1-29.5-1.5-4-3.8-7-6.8-9.1l-1.4-.9c-.9-.8-2.5-1.6-4.6-2.4-2.1-.9-4.3-1.5-6.6-1.8l-78.2.6c-8 0-13.4 1.8-16.3 5.4l-1.1 1.7c-.6 1-.9 2.5-.9 4.6 0 2.1.6 4.7 1.7 7.7 11.4 26.8 23.8 52.6 37.2 77.4s25.1 44.9 35 60.1c9.9 15.2 20 29.5 30.2 43 10.3 13.5 17.1 22.1 20.4 25.9 3.3 3.8 5.9 6.6 7.8 8.5l7.1 6.8c4.6 4.6 11.3 10 20.1 16.4 8.8 6.4 18.6 12.6 29.4 18.8 10.7 6.2 23.3 11.2 37.5 15.1 14.3 3.9 28.2 5.5 41.7 4.7h32.8c6.7-.6 11.7-2.7 15.1-6.3l1.1-1.4c.8-1.1 1.5-2.9 2.1-5.3.7-2.4 1-5 1-7.8-.2-8.2.4-15.5 1.9-22.1 1.4-6.5 3-11.5 4.9-14.8 1.8-3.3 3.9-6.1 6.1-8.4 2.3-2.3 3.9-3.7 4.9-4.1.9-.5 1.7-.8 2.3-1 4.6-1.5 9.9 0 16.1 4.4 6.2 4.5 12 10 17.4 16.5 5.4 6.6 11.9 13.9 19.5 22.1 7.6 8.2 14.3 14.2 20 18.2l5.7 3.4c3.8 2.3 8.8 4.4 14.8 6.3 6.1 1.9 11.4 2.4 16 1.4l73-1.1c7.2 0 12.8-1.2 16.8-3.6 4-2.4 6.4-5 7.1-7.8.8-2.8.8-6.1.1-9.7-.6-3.4-1.3-5.9-1.9-7.3z"/></svg><svg viewBox="21.5 -19.5 82 82" width="82" height="82" id="yamaps" x="12930" y="11879"><title>android_maps</title><path fill="#DBDBDB" d="M80.6-11H58.1v65.2h22.5c7.9 0 14.5-6.5 14.5-14.5V3.4c0-7.9-6.5-14.4-14.5-14.4z"/><path fill="#FFF" d="M92.4 19.8L74-11.1H44.3c-7.9 0-14.5 6.8-14.5 14.8V40c0 7.9 6.5 14.1 14.5 14.1H74l18.4-30.6c.6-1.1.6-2.7 0-3.7z"/><path fill="#DBDBDB" d="M80.6-11H44.3c-7.9 0-14.5 6.8-14.5 14.8v36.3c0 7.9 6.5 14.1 14.5 14.1h36.3c7.9 0 14.5-6.2 14.5-14.1V3.8c0-8.1-6.5-14.8-14.5-14.8zM94 40c0 7.4-6 13-13.4 13H44.3c-7.4 0-13.4-5.7-13.4-13V3.7c0-7.4 6-13.7 13.4-13.7h36.4C88.1-10 94-3.7 94 3.7V40z"/><path fill="#C00" d="M58.7 28.4l14.7-14.7c0 9.8-7.4 17.2-19.6 34.2l4.9-19.5z"/><path fill="#F00" d="M58.7-.9c8.1 0 14.7 6.6 14.7 14.7s-6.5 14.7-14.7 14.7C50.6 28.5 44 22 44 13.8S50.7-.9 58.7-.9z"/><path fill="#F6F5F3" d="M58.7 7.9c3.3 0 5.9 2.6 5.9 5.9s-2.6 5.9-5.9 5.9c-3.3 0-5.9-2.6-5.9-5.9s2.6-5.9 5.9-5.9z"/></svg><svg viewBox="249 -31 106 106" width="106" height="106" id="youtube" x="13012" y="11961"><path fill="#fff" d="M345.9-5.7c-3.4-4.1-9.8-5.8-21.9-5.8h-44c-12.4 0-18.8 1.8-22.3 6.1-3.3 4.2-3.3 10.5-3.3 19.1v16.5c0 16.8 4 25.3 25.6 25.3h44c10.5 0 16.3-1.5 20.1-5.1 3.9-3.7 5.5-9.7 5.5-20.2V13.8c0-9.2-.3-15.4-3.7-19.5zm-30.4 30l-20 10.4c-1.5.8-3.4.2-4.1-1.3-.2-.4-.4-.9-.3-1.4V11.2c0-1.7 1.4-3.1 3.1-3.1.5 0 1 .1 1.4.3l20 10.4c1.5.8 2.1 2.6 1.3 4.1-.4.6-.8 1.1-1.4 1.4z"/></svg></svg>