<svg xmlns="http://www.w3.org/2000/svg" xmlns:xlink="http://www.w3.org/1999/xlink" viewBox="0 0 46 19.834"><defs><path id="a" d="M0 0h46v19.834H0z"/></defs><clipPath id="b"><use xlink:href="#a" overflow="visible"/></clipPath><path d="M18.603 10.585l-2.305 6.217-.246-1.263c-.575-1.549-1.818-3.174-3.265-3.833l2.109 7.984 2.493-.001 3.708-9.104h-2.494z" clip-path="url(#b)" fill="#134a89"/><path fill="#134a89" d="M22.054 10.577l-1.474 9.122h2.354l1.475-9.122z"/><defs><path id="c" d="M0 0h46v19.834H0z"/></defs><clipPath id="d"><use xlink:href="#c" overflow="visible"/></clipPath><path d="M31.479 10.802a5.816 5.816 0 0 0-2.111-.384c-2.33 0-3.967 1.238-3.981 3.01-.015 1.312 1.17 2.044 2.061 2.48.92.446 1.227.732 1.225 1.132-.009.611-.736.889-1.412.889-.941 0-1.443-.137-2.215-.476l-.306-.146-.33 2.042c.552.254 1.569.474 2.626.485 2.473 0 4.082-1.224 4.101-3.115.01-1.041-.619-1.829-1.98-2.479-.821-.423-1.328-.703-1.321-1.132.001-.378.426-.784 1.35-.784a4.103 4.103 0 0 1 1.762.351l.21.104.321-1.977zm3.136 5.662c.196-.523.939-2.549.939-2.549-.015.024.193-.528.313-.87l.157.787.547 2.632h-1.956zm2.905-5.878H35.7c-.564 0-.987.161-1.236.757l-3.496 8.359h2.473s.405-1.125.497-1.372l3.015.006c.073.318.287 1.366.287 1.366h2.187l-1.907-9.116z" clip-path="url(#d)" fill="#134a89"/><path d="M14.159 10.581H10.36l-.022.157c2.954.755 4.903 2.61 5.714 4.804l-.826-4.193c-.142-.576-.555-.748-1.067-.768" clip-path="url(#d)" fill="#f09720"/><path fill="#134a89" d="M0 .566l1.732 7.81h1.503L7.46.369H5.865L2.846 6.401 1.661.289z"/><defs><path id="e" d="M0 0h46v19.834H0z"/></defs><clipPath id="f"><use xlink:href="#e" overflow="visible"/></clipPath><path d="M8.938 3.605c-.555 0-1.073.438-1.317 1.351h2.218c.041-.866-.231-1.351-.901-1.351m2.108 2.218H7.464c-.098 1.086.407 1.56 1.262 1.56.716 0 1.347-.266 2.025-.693l-.006 1.086a4.314 4.314 0 0 1-2.335.681c-1.559 0-2.589-.889-2.28-2.9.279-1.814 1.534-2.911 2.99-2.911 1.675 0 2.233 1.259 1.989 2.842-.018.115-.051.254-.063.335m2.335-.682l-.493 3.201h-1.386l.859-5.581h1.178l.001 1.121c.47-.648 1.108-1.19 1.981-1.237l.008 1.375a3.079 3.079 0 0 0-2.148 1.121m3.838-3.316c-.462 0-.782-.323-.711-.785a.968.968 0 0 1 .956-.809c.451 0 .769.335.696.809-.071.462-.49.785-.941.785m-1.708 6.517l.859-5.581h1.386l-.858 5.581h-1.387zm6.085-7.106c-.474 0-.76.208-.837.705l-.126.82h1.063l-.001 1.132h-1.236l-.685 4.449h-1.375l.685-4.449h-.809l.174-1.132h.809l.148-.959C19.596.566 20.453.104 21.597.104c.243 0 .424.023.559.046l.011 1.132a3.533 3.533 0 0 0-.571-.046m1.723.589c-.462 0-.782-.323-.711-.785a.968.968 0 0 1 .956-.809c.451 0 .769.335.696.809-.071.462-.49.785-.941.785m-1.708 6.517l.859-5.581h1.387l-.859 5.581h-1.387zm5.513-4.737c-.555 0-1.073.438-1.317 1.351h2.218c.041-.866-.231-1.351-.901-1.351m2.109 2.218H25.65c-.098 1.086.407 1.56 1.262 1.56.716 0 1.347-.266 2.025-.693l-.006 1.086a4.317 4.317 0 0 1-2.335.681c-1.56 0-2.589-.889-2.28-2.9.279-1.814 1.534-2.911 2.99-2.911 1.675 0 2.233 1.259 1.989 2.842-.018.115-.051.254-.062.335m4.569-1.768c-.321-.162-.575-.242-1.048-.242-.728 0-1.351.589-1.539 1.814-.167 1.086.217 1.594.829 1.594.509 0 .948-.3 1.388-.762l.37-2.404zm-.463 4.287l.004-.774c-.466.474-1.073.89-1.847.89-1.168 0-1.97-.867-1.68-2.751.32-2.079 1.606-3.004 2.9-3.004.532 0 .945.093 1.262.208l.415-2.692L35.813 0l-1.284 8.342h-1.19zm6.213-3.387c-.351 0-.702.237-1.013.552l-.295 1.916c.207.079.35.114.648.114.665 0 1.13-.402 1.278-1.365.125-.814-.146-1.217-.618-1.217m-.775 3.44a4.95 4.95 0 0 1-1.69-.28l.912-5.925 1.076-.167-.394 2.565c.314-.28.751-.561 1.285-.561.892 0 1.49.666 1.272 2.084-.24 1.557-1.201 2.284-2.461 2.284m4.935.174c-.537 1.041-1.068 1.365-1.882 1.365-.184 0-.286-.017-.378-.043l-.007-.867c.135.035.28.061.481.061.306 0 .573-.14.751-.446l.14-.28-.891-4.166 1.116-.14.517 3.011 1.399-2.95H46l-2.288 4.455z" clip-path="url(#f)" fill="#134a89"/></svg>