<svg xmlns="http://www.w3.org/2000/svg" viewBox="173 -160 365 365"><path fill="#DD3F3F" stroke="#DD3F3F" d="M368.1-153.4c-2.4-4.9-10.4-4.9-12.9 0-20.7 38-39.7 76.5-50.7 118.1-1.2 6.1 5.5 12.2 11 8.6 12.2-8.6 22.6-19 31.8-31.2-2.4 85.7-14.1 174.4 6.1 258.9 1.2 6.1 11.6 4.9 11-1.2-11-87.5-2.4-174.4-1.2-261.9 10.4 9.2 20.8 18.4 30.6 27.5 4.3 4.3 13.5 1.8 12.9-5.5-4.9-40.4-18.4-78.4-38.6-113.3zm-6.7 72.9c-3.7-5.5-14.1-4.3-14.1 4.3v1.2c-7.3 7.3-14.1 14.7-22 22 9.8-28.2 22-54.5 36.1-80.8 12.2 23.9 21.4 48.3 26.3 74.7-6.7-6.1-14.1-12.2-20.8-19-1.2-2.4-3.7-3.1-5.5-2.4z"/></svg>