<svg xmlns="http://www.w3.org/2000/svg" viewBox="0 0 512 512"><path d="M11.253 164.754a8.44 8.44 0 0 0 0 16.88h50.952v-16.879H11.253zm489.494 0h-50.952v16.879h50.952a8.44 8.44 0 0 0 0-16.879z" fill="#961300"/><path d="M11.253 373.847h88.795v92.554H11.253zm400.699 0h88.795v92.554h-88.795z" fill="#0e0a57"/><path d="M512 274.21c0-6.189-2.712-15.641-6.031-20.863l-22.551-35.514-34.726-139.477c-4.49-18.016-23.349-32.757-41.916-32.757H105.224c-18.567 0-37.427 14.741-41.916 32.757L28.582 217.834 6.031 253.347C2.712 258.568 0 268.021 0 274.21l57.693 31.508L0 337.225v59.122h139.883L256 362.533l116.117 33.815H512v-59.122l-57.693-31.508L512 274.21z" fill="#e42105"/><path d="M466.024 217.834L432.315 82.438c-2.604-10.446-14.776-19.96-25.538-19.96H105.224c-10.762 0-22.934 9.514-25.537 19.956l-33.711 135.4h420.048z" fill="#fff"/><path d="M71.196 274.21c17.397 0 31.508 14.1 31.508 31.508 0 17.397-14.111 31.508-31.508 31.508H0V274.21h71.196zm440.804 0v63.015h-71.196c-17.397 0-31.508-14.111-31.508-31.508 0-17.408 14.111-31.508 31.508-31.508H512z" fill="#ff7039"/><path fill="#fcded6" d="M349.612 340.027l22.505 56.32H139.883l22.505-56.32z"/></svg>