<svg xmlns="http://www.w3.org/2000/svg" viewBox="261.5 -247.5 540 540"><g fill="#74a3c7"><path d="M531.5 292C382.9 292 262 171.1 262 22.5S382.9-247 531.5-247 801-126.1 801 22.5C801.1 171.1 680.2 292 531.5 292zm0-516.6c-136.2 0-247.1 110.8-247.1 247.1s110.8 247.1 247.1 247.1S778.6 158.7 778.6 22.5 667.8-224.6 531.5-224.6z"/><path d="M531.5 67.4c-24.8 0-44.9-20.2-44.9-44.9 0-24.8 20.1-44.9 44.9-44.9 24.8 0 44.9 20.1 44.9 44.9.1 24.7-20.1 44.9-44.9 44.9zm0-67.4C519.1 0 509 10.1 509 22.5S519.1 45 531.5 45 554 34.9 554 22.5 543.9 0 531.5 0z"/><path d="M728.6 115.4c-1.4 0-2.9-.3-4.3-.9l-41.5-17.2c-5.7-2.4-8.4-9-6.1-14.7 2.4-5.7 9-8.5 14.7-6.1l41.5 17.2c5.7 2.4 8.4 9 6.1 14.7-1.8 4.3-5.9 7-10.4 7zm-394.2-.1c-4.4 0-8.6-2.6-10.4-6.9-2.4-5.7.4-12.3 6.1-14.7l41.5-17.2c5.7-2.4 12.3.4 14.7 6.1 2.4 5.7-.4 12.3-6.1 14.7l-41.5 17.2c-1.4.6-2.9.8-4.3.8zm27.4-77.4h-44.9c-6.2 0-11.2-5-11.2-11.2 0-6.2 5-11.2 11.2-11.2h44.9c6.2 0 11.2 5 11.2 11.2 0 6.1-5 11.2-11.2 11.2zm383.1-4.2H700c-6.2 0-11.2-5-11.2-11.2 0-6.2 5-11.2 11.2-11.2h44.9c6.2 0 11.2 5 11.2 11.2 0 6.2-5 11.2-11.2 11.2zM555.4 9.9c-2.9 0-5.7-1.1-7.9-3.3-4.4-4.4-4.4-11.5 0-15.9l111.2-111.2c4.4-4.4 11.5-4.4 15.9 0s4.4 11.5 0 15.9L563.3 6.6c-2.2 2.2-5.1 3.3-7.9 3.3zM375.9-30.8c-1.4 0-2.9-.3-4.3-.9l-41.5-17.2c-5.7-2.4-8.4-8.9-6.1-14.7 2.4-5.7 8.9-8.4 14.7-6.1l41.5 17.2c5.7 2.4 8.4 8.9 6.1 14.7-1.8 4.4-6 7-10.4 7zm311.3 0c-4.4 0-8.6-2.6-10.4-6.9-2.4-5.7.4-12.3 6.1-14.7l41.5-17.2c5.7-2.3 12.3.4 14.7 6.1 2.4 5.7-.4 12.3-6.1 14.7l-41.5 17.2c-1.4.6-2.9.8-4.3.8zM412.4-85.4c-2.9 0-5.7-1.1-7.9-3.3l-31.7-31.8c-4.4-4.4-4.4-11.5 0-15.9s11.5-4.4 15.9 0l31.7 31.8c4.4 4.4 4.4 11.5 0 15.9-2.3 2.2-5.1 3.3-8 3.3zm54.7-36.6c-4.4 0-8.6-2.6-10.4-6.9l-17.2-41.5c-2.4-5.7.4-12.3 6.1-14.7 5.7-2.3 12.3.4 14.7 6.1l17.2 41.5c2.4 5.7-.4 12.3-6.1 14.7-1.4.6-2.9.8-4.3.8zm128.9 0c-1.4 0-2.9-.3-4.3-.9-5.7-2.4-8.4-8.9-6.1-14.7l17.2-41.5c2.4-5.7 9-8.4 14.7-6.1 5.7 2.4 8.4 8.9 6.1 14.7L606.4-129c-1.8 4.4-6 7-10.4 7zm-65.7-8.6c-6.2 0-11.2-5-11.2-11.2v-44.9c0-6.2 5-11.2 11.2-11.2 6.2 0 11.2 5 11.2 11.2v44.9c0 6.2-5 11.2-11.2 11.2zm102.3 332.8H430.5c-6.2 0-11.2-5-11.2-11.2v-67.4c0-6.2 5-11.2 11.2-11.2h202.2c6.2 0 11.2 5 11.2 11.2V191c-.1 6.1-5.1 11.2-11.3 11.2zm-190.9-22.5h179.7v-44.9H441.7v44.9z"/></g></svg>