<svg xmlns="http://www.w3.org/2000/svg" viewBox="243.8 -229.8 504 504"><path d="M730.8-53.8H714c0-9.2-7.6-16.8-16.8-16.8h-16.8c0-14.3-10.9-25.2-25.2-25.2H386.7c-11.3 0-20.6 6.9-23.9 16.9-16.2 1.1-29.8 11-35.9 25.1h-22.5l-22.7-21c-3.4-3.4-8.4-3.4-11.8 0l-23.5 23.5c-1.7 1.7-2.5 3.4-2.5 5.9 0 2.5.8 4.2 2.5 5.9l35.3 33.6c1.7 1.7 3.4 2.5 5.9 2.5h33.1l-8.8 115c-.8 7.6 1.7 14.3 6.7 19.3 5 5.9 11.8 8.4 18.5 8.4 22.7 0 42-16.8 44.5-40.3l4.5-60.4h10.4l18.6 82.3c1.7 6.7 5.9 12.6 11.8 15.9 4.2 2.5 8.4 3.4 12.6 3.4 2.5 0 5-.8 7.6-1.7 21.8-5.9 35.3-27.7 31.1-50.4l-8.4-49.5h185.5c14.3 0 25.2-10.9 25.2-25.2h16.8c9.2 0 16.8-7.6 16.8-16.8h16.8c9.2 0 16.8-7.6 16.8-16.8V-37c-.1-9.2-7.6-16.8-16.9-16.8zM604.9-78.9v33.6c0 5-3.4 8.4-8.4 8.4H445.4c-5 0-8.4-3.4-8.4-8.4v-33.6h167.9zM322.1-20.2H291l-26.9-25.2 12.6-11.8L296-39.5c.8 1.7 3.4 2.5 5 2.5h22.3L322-20.6l.1.4zm42.8 116.7v1.7c-1.7 13.4-13.4 24.3-27.7 24.3-2.5 0-4.2-.8-5.9-2.5-1.7-2.5-2.5-4.2-2.5-6.7L340-32.5l.6-7c0-.8.8-1.7.8-3.4.3-1 .4-2 .3-3.1 2.9-8.8 10.8-14.8 19.9-16.2v75.6c0 7.7 3.2 14.4 8.4 19l-5.1 64.1zm97.3-7.6v1.7c2.5 14.3-5.9 27.7-19.3 31.9-2.5.8-5 0-6.7-.8-2.5-.8-3.4-2.5-4.2-5l-17.6-78.1H453l9.2 50.3zm201.5-75.5c0 5-3.4 8.4-8.4 8.4h-25.2V5c0-5-3.4-8.4-8.4-8.4S613.3 0 613.3 5v16.8H563V5c0-5-3.4-8.4-8.4-8.4S546.2 0 546.2 5v16.8h-50.4V5c0-5-3.4-8.4-8.4-8.4S479 0 479 5v16.8h-50.4V5c0-5-3.4-8.4-8.4-8.4S411.8 0 411.8 5v16.8h-25.2c-.8 0-1.5-.1-2.2-.2-.4-.2-.7-.4-1.2-.6-3.4-1.7-5-4.2-5-7.6v-83.9c0-5 3.4-8.4 8.4-8.4h33.6v33.6c0 14.3 10.9 25.2 25.2 25.2h151.1c14.3 0 25.2-10.9 25.2-25.2v-33.6h33.6c5 0 8.4 3.4 8.4 8.4v83.9zm33.5-16.8h-16.8v-50.4h16.8v50.4zm33.6-16.8H714V-37h16.8v16.8z" fill="#74a3c7"/></svg>