<svg xmlns="http://www.w3.org/2000/svg" viewBox="13.5 0.5 44 44"><path fill="#74a3c7" d="M39.9 1c1.4.3 2.7.7 4 1.2 1.3.5 2.6 1.2 3.7 2 .5.3.7 1 .3 1.6 0 .1-.1.1-.1.2-.5.6-.8 1.3-.8 2 0 .8.3 1.5.9 2.1.6.6 1.3.9 2.1.9s1.5-.3 2.1-.8c.4-.4 1.2-.4 1.6 0l.1.1c.8 1.2 1.4 2.4 2 3.7.5 1.3.9 2.7 1.2 4 .1.6-.3 1.2-.9 1.3h-.2c-.8 0-1.5.4-2.1.9-.5.5-.8 1.3-.8 2.1s.3 1.6.8 2.1 1.3.9 2.1.9c.6 0 1.1.5 1.1 1.1v.2c-.3 1.4-.7 2.7-1.2 4-.6 1.3-1.2 2.6-2 3.7-.3.5-1 .7-1.5.3-.1 0-.1-.1-.2-.1-.6-.5-1.3-.8-2.1-.8-.7 0-1.5.3-2.1.9-.6.6-.9 1.3-.9 2.1s.3 1.5.8 2.1c.4.4.4 1.1 0 1.6 0 0-.1.1-.2.1-1.2.8-2.4 1.4-3.7 2-1.3.5-2.6 1-4 1.2-.6.1-1.2-.3-1.3-.9v-.2c0-.8-.4-1.6-.9-2.1s-1.3-.8-2.1-.8-1.6.3-2.1.8-.9 1.3-.9 2.1c0 .6-.5 1.1-1.1 1.1h-.2c-1.4-.3-2.7-.7-4-1.2-1.3-.5-2.6-1.2-3.7-2-.5-.3-.7-1-.3-1.6 0-.1.1-.1.1-.2.6-.6.8-1.3.8-2.1 0-.7-.3-1.5-.9-2.1-.6-.6-1.3-.9-2.1-.9s-1.5.3-2.1.8c-.4.4-1.2.4-1.6 0 0 0-.1-.1-.1-.2-.8-1.2-1.5-2.4-2-3.7v-.1c-.5-1.3-.9-2.6-1.2-4-.1-.6.3-1.2.9-1.3h.2c.8 0 1.5-.4 2.1-.9.5-.5.9-1.3.9-2.1s-.3-1.6-.9-2.1c-.5-.6-1.3-.9-2.1-.9-.6 0-1.1-.5-1.1-1.1v-.2c.3-1.4.7-2.7 1.2-4 .5-1.3 1.2-2.6 2-3.7.3-.5 1-.7 1.5-.3.1 0 .1.1.2.1.6.6 1.3.8 2.1.8.7 0 1.5-.3 2.1-.9.4-.2.7-1 .7-1.8 0-.7-.3-1.5-.8-2.1-.4-.4-.4-1.2 0-1.6 0 0 .1-.1.2-.1 1.2-.8 2.4-1.4 3.7-2 1.3-.5 2.6-1 4-1.2.6-.1 1.2.3 1.3.9v.2c0 .8.4 1.5.9 2.1.7.5 1.4.8 2.2.8.8 0 1.6-.3 2.1-.9.5-.5.9-1.3.9-2.1 0-.5.5-1 1.2-1h.2zm-4.4 10.8c2.9 0 5.6 1.2 7.5 3.1 1.9 1.9 3.1 4.6 3.1 7.5 0 2.9-1.2 5.6-3.1 7.5-1.9 1.9-4.6 3.1-7.5 3.1-3 0-5.6-1.2-7.5-3.1-1.9-1.9-3.1-4.6-3.1-7.5 0-3 1.2-5.6 3.1-7.5 1.9-1.9 4.6-3.1 7.5-3.1zm6 4.8c-1.5-1.5-3.6-2.5-6-2.5-2.3 0-4.4 1-6 2.5s-2.5 3.6-2.5 6c0 2.3.9 4.4 2.5 6s3.6 2.5 6 2.5c2.3 0 4.4-.9 6-2.5 1.5-1.5 2.5-3.6 2.5-6-.1-2.4-1-4.5-2.5-6zM43 4.3c-.8-.3-1.7-.6-2.5-.8-.3.9-.7 1.7-1.4 2.3-.9.9-2.2 1.5-3.7 1.5-1.4 0-2.7-.6-3.7-1.5-.7-.6-1.1-1.4-1.4-2.3-.7.2-1.5.5-2.3.8-.8.3-1.6.7-2.4 1.2.4.8.7 1.7.7 2.6 0 1.3-.5 2.6-1.5 3.6s-2.3 1.5-3.7 1.5c-.9 0-1.8-.2-2.6-.7l-1.2 2.4c-.3.8-.6 1.6-.8 2.5.9.3 1.7.7 2.3 1.4.9 1 1.5 2.2 1.5 3.7 0 1.4-.6 2.7-1.5 3.7-.6.6-1.4 1.1-2.3 1.4.2.8.5 1.7.8 2.4v.1c.3.8.7 1.6 1.2 2.4.8-.4 1.7-.7 2.6-.6 1.3 0 2.6.5 3.7 1.5 1 1 1.5 2.3 1.5 3.6 0 .9-.2 1.8-.7 2.6l2.4 1.2c.8.3 1.6.6 2.5.9.3-.9.7-1.7 1.4-2.3.9-.9 2.2-1.5 3.7-1.5 1.4 0 2.7.6 3.7 1.5.6.6 1.1 1.4 1.4 2.3.8-.2 1.7-.5 2.5-.9.8-.3 1.6-.7 2.4-1.2-.4-.8-.7-1.7-.6-2.6 0-1.3.5-2.6 1.5-3.6s2.3-1.5 3.6-1.5c.9 0 1.8.2 2.6.6.4-.8.8-1.5 1.2-2.4.3-.8.6-1.7.8-2.5-.9-.3-1.7-.7-2.3-1.4-.9-1-1.5-2.2-1.5-3.7 0-1.4.6-2.7 1.5-3.7.6-.6 1.4-1.1 2.3-1.4-.2-.9-.5-1.7-.8-2.5-.3-.8-.7-1.6-1.2-2.4-.8.4-1.7.7-2.6.7-1.3 0-2.6-.5-3.6-1.5S45 9.4 45 8.1c0-.9.2-1.8.6-2.6-.9-.5-1.7-.9-2.6-1.2z"/></svg>