<svg xmlns="http://www.w3.org/2000/svg" viewBox="0 0 411.223 411.223"><path d="M405.169 352.183v.13c-40.37 36.61-93.96 58.91-152.74 58.91-58.79 0-112.38-22.3-152.75-58.91v-.13c0-60.89 35.63-113.45 87.17-137.98 19.37 19.32 42.05 29.73 65.58 29.73 23.54 0 46.21-10.41 65.59-29.73 51.54 24.53 87.15 77.09 87.15 137.98z" fill="#1ea6c6"/><path d="M252.429 21.883c46.66 0 84.49 37.82 84.49 84.48 0 46.67-37.83 110.49-84.49 110.49s-84.49-63.82-84.49-110.49c0-46.66 37.83-84.48 84.49-84.48z" fill="#fcd09f"/><path d="M181.224 187.15c2.59 3.69 5.27 7.15 8.04 10.4l-8.43 4.01c-28.06 13.35-51.8 34.24-68.67 60.41a165.994 165.994 0 0 0-25.31 70.31c-30.49-8.31-58.05-23.72-80.8-44.35v-.11c0-53.06 31.05-98.86 75.96-120.24 16.88 16.84 36.64 25.91 57.14 25.91 13.43 0 26.55-3.89 38.74-11.31 1.07 1.68 2.19 3.34 3.33 4.97z" fill="#ef806f"/><path d="M153.944 106.36c0 17.54 4.56 36.84 12.68 54.98-8.49 5.38-17.76 8.55-27.47 8.55-40.66 0-73.62-55.61-73.62-96.28 0-40.66 32.96-73.61 73.62-73.61 22.55 0 42.74 10.14 56.24 26.11-25.07 17.88-41.45 47.19-41.45 80.25z" fill="#efc59c"/></svg>