<svg xmlns="http://www.w3.org/2000/svg" viewBox="241 -227 498 498"><linearGradient id="a" gradientUnits="userSpaceOnUse" x1="961.049" y1="-.299" x2="961.049" y2=".705" gradientTransform="matrix(496.158 0 0 496.152 -476341.969 -78.54)"><stop offset="0" stop-color="#8ed0f3"/><stop offset="1" stop-color="#188bc4"/></linearGradient><path fill="url(#a)" d="M739 22c0-137.5-111.5-249-249-249S241-115.5 241 22s111.5 249 249 249S739 159.5 739 22z"/><path fill="#FFF" d="M557.1 133.5c-1.4-2-4-2.8-6.3-1.7-24.6 11.6-52.5 23.9-58 25-.2-.2-.5-.5-.6-.7-.7-1-1.1-2.3-1.1-4 0-13.9 10.5-56.2 31.2-125.7 17.5-58.4 19.5-70.5 19.5-74.5 0-6.2-2.4-11.4-6.9-15.1-4.3-3.5-10.2-5.3-17.7-5.3-12.5 0-26.9 4.7-44.1 14.5-16.7 9.4-35.4 25.4-55.4 47.5-1.9 2-1.7 5.2.3 7.1 1.4 1.3 3.5 1.7 5.2.9 7-2.9 42.4-17.4 47.6-20.6 4.2-2.6 7.9-4 10.9-4h.3c0 .2.1.5.1.9 0 3-.6 6.7-1.9 10.7-30.1 97.6-44.8 157.5-44.8 183 0 9 2.5 16.2 7.4 21.5 5 5.4 11.8 8.1 20.1 8.1 8.9 0 19.7-3.7 33.1-11.4 12.9-7.4 32.7-23.7 60.4-49.7 1.8-1.7 2.1-4.5.7-6.5zm-.9-282.9c-4.9-5-11.2-7.6-18.7-7.6-9.3 0-17.5 3.7-24.2 11-6.6 7.2-9.9 15.9-9.9 26.1 0 8 2.5 14.7 7.3 19.8 4.9 5.2 11.1 7.8 18.5 7.8 9 0 17-3.9 24-11.6 6.9-7.6 10.4-16.4 10.4-26.4-.1-7.7-2.5-14.1-7.4-19.1z"/></svg>