<svg xmlns="http://www.w3.org/2000/svg" viewBox="77 -63 170 170"><g fill="#fff"><path d="M199.9-62.5h-75.7c-25.7 0-46.6 20.9-46.6 46.6v75.7c0 25.7 20.9 46.6 46.6 46.6h75.7c25.7 0 46.6-20.9 46.6-46.6v-75.7c0-25.7-20.9-46.6-46.6-46.6zm31.6 122.4c0 17.4-14.2 31.6-31.6 31.6h-75.7c-17.4 0-31.6-14.2-31.6-31.6v-75.7c0-17.4 14.2-31.6 31.6-31.6h75.7c17.4 0 31.6 14.2 31.6 31.6v75.7z"/><path d="M162-21.5c-24 0-43.5 19.5-43.5 43.5S138 65.5 162 65.5 205.5 46 205.5 22 186-21.5 162-21.5zm0 72.1c-15.7 0-28.6-12.8-28.6-28.6 0-15.7 12.8-28.6 28.6-28.6S190.6 6.3 190.6 22c0 15.7-12.9 28.6-28.6 28.6zm45.4-84.9c-2.9 0-5.7 1.2-7.8 3.2-2.1 2.1-3.2 4.9-3.2 7.8 0 2.9 1.2 5.7 3.2 7.8 2 2 4.9 3.2 7.8 3.2 2.9 0 5.7-1.2 7.8-3.2 2-2 3.2-4.9 3.2-7.8 0-2.9-1.2-5.7-3.2-7.8-2.1-2-4.9-3.2-7.8-3.2z"/></g></svg>