<svg xmlns="http://www.w3.org/2000/svg" viewBox="16.8 36.3 28 28"><g fill="#073F5C"><path d="M30.8 42.4c-2 0-3.6 1.6-3.6 3.6s1.6 3.6 3.6 3.6 3.6-1.6 3.6-3.6-1.6-3.6-3.6-3.6zm0 6.1c-1.4 0-2.6-1.1-2.6-2.6 0-1.4 1.1-2.6 2.6-2.6s2.6 1.1 2.6 2.6-1.1 2.6-2.6 2.6z"/><path d="M37.7 39.1c-1.8-1.8-4.3-2.9-6.9-2.9-2.6 0-5.1 1-6.9 2.9-3.4 3.4-3.9 9.9-.9 13.8l7.9 11.3 7.8-11.3c2.8-3.9 2.4-10.4-1-13.8zm.1 13.2l-7 10.1-7-10.1c-2.7-3.5-2.3-9.4.8-12.5 1.7-1.7 3.9-2.6 6.2-2.6s4.5.9 6.2 2.6c3.1 3.1 3.4 9 .8 12.5z"/></g></svg>