<svg xmlns="http://www.w3.org/2000/svg" viewBox="142 -68 300 180"><path fill="#F90" d="M440 22.5c0 48.9-39.6 88.6-88.6 88.6-48.9 0-88.6-39.6-88.6-88.6 0-48.9 39.6-88.6 88.6-88.6 48.9 0 88.6 39.6 88.6 88.6z"/><path fill="#C00" d="M232-66.1c-48.6.3-88 39.9-88 88.6 0 48.9 39.7 88.6 88.6 88.6 23 0 43.9-8.7 59.6-23.1 3.2-2.9 6.2-6.1 9-9.5H283c-2.4-2.9-4.6-5.9-6.6-9.1h31.3c1.9-3.1 3.6-6.2 5.2-9.5h-41.6c-1.4-3-2.6-6.1-3.7-9.3h49c3-9.1 4.6-18.6 4.6-28.1 0-6.5-.7-12.9-2-19H265c.7-3.1 1.5-6.3 2.5-9.3h49.1c-1.1-3.2-2.4-6.4-3.8-9.5h-41.5c1.5-3.2 3.2-6.3 5.1-9.3h31.3c-2.1-3.3-4.4-6.5-6.9-9.5h-17.4c2.7-3.2 5.7-6.2 8.9-9-15.7-14.3-36.7-23.1-59.6-23.1l-.7.1z"/><path fill="#FFF" d="M264.4 45.1l1.2-8c-.6 0-1.6.3-2.4.3-3.3 0-3.6-1.7-3.4-3l2.7-16.4h5l1.2-8.9H264l1-5.5h-9.4c-.2.2-5.6 31-5.6 34.8 0 5.6 3.1 8 7.5 8 3.3-.1 6-1.1 6.9-1.3zm3-15.3c0 13.3 8.8 16.5 16.3 16.5 6.9 0 10-1.5 10-1.5l1.7-9.1s-5.3 2.3-10 2.3c-10.1 0-8.4-7.6-8.4-7.6h19.2s1.2-6.1 1.2-8.6c0-6.2-3.1-13.8-13.5-13.8-9.5 0-16.5 10.2-16.5 21.8zM284 16.4c5.3 0 4.3 6 4.3 6.5h-10.5c0-.6 1-6.5 6.2-6.5zm59.7 28.7l1.7-10.3s-4.6 2.3-7.8 2.3c-6.7 0-9.4-5.1-9.4-10.6 0-11.1 5.8-17.3 12.2-17.3 4.8 0 8.7 2.7 8.7 2.7l1.5-10S344.9-.4 340-.4c-10.9 0-21.5 9.4-21.5 27.2 0 11.8 5.7 19.5 17 19.5 3.1 0 8.2-1.2 8.2-1.2zm-131.2-37c-6.5 0-11.4 2.1-11.4 2.1l-1.4 8.1s4.1-1.7 10.3-1.7c3.5 0 6.1.4 6.1 3.3 0 1.7-.3 2.4-.3 2.4s-2.8-.2-4.1-.2c-8.2 0-16.7 3.5-16.7 14 0 8.3 5.6 10.2 9.1 10.2 6.7 0 9.5-4.3 9.7-4.3l-.3 3.6h8.3l3.7-26c0-11.1-9.6-11.5-13-11.5zm2.1 21.2c.2 1.6-1 9-6.7 9-2.9 0-3.7-2.2-3.7-3.6 0-2.6 1.4-5.7 8.3-5.7 1.6.1 1.8.3 2.1.3zM234.3 46c2.1 0 14.3.5 14.3-12 0-11.7-11.2-9.4-11.2-14.1 0-2.3 1.8-3.1 5.2-3.1 1.3 0 6.4.4 6.4.4l1.2-8.3s-3.3-.7-8.7-.7c-7 0-14.1 2.8-14.1 12.3 0 10.8 11.8 9.7 11.8 14.3 0 3-3.3 3.3-5.8 3.3-4.4 0-8.4-1.5-8.4-1.4l-1.3 8.2c.3 0 2.7 1.1 10.6 1.1zM421.9.7l-2 12.6s-3.6-4.9-9.1-4.9c-8.6 0-15.8 10.4-15.8 22.4 0 7.7 3.8 15.3 11.7 15.3 5.7 0 8.8-3.9 8.8-3.9l-.4 3.4h9.2L431.5.7h-9.6zm-4.4 24.6c0 5-2.5 11.6-7.6 11.6-3.4 0-5-2.8-5-7.3 0-7.3 3.3-12.1 7.4-12.1 3.4 0 5.2 2.3 5.2 7.8zm-256 20.3l5.7-33.9.8 33.9h6.5l12.1-33.9-5.4 33.9h9.7L198.3.7h-14.9l-9.3 27.6-.5-27.6h-13.8l-7.5 44.9h9.2zm145.3 0c2.7-15.6 3.3-28.3 9.8-26 1.1-6 2.3-8.4 3.5-10.9 0 0-.6-.1-1.8-.1-4.2 0-7.4 5.8-7.4 5.8l.8-5.3H303l-5.9 36.6h9.7v-.1zm58.7-37.5c-6.5 0-11.4 2.1-11.4 2.1l-1.4 8.1s4.1-1.7 10.3-1.7c3.5 0 6.1.4 6.1 3.3 0 1.7-.3 2.4-.3 2.4s-2.8-.2-4.1-.2c-8.2 0-16.7 3.5-16.7 14 0 8.3 5.6 10.2 9.1 10.2 6.7 0 9.5-4.3 9.7-4.3l-.3 3.6h8.3l3.7-26c-.1-11.1-9.7-11.5-13-11.5zm2 21.2c.2 1.6-1 9-6.7 9-2.9 0-3.7-2.2-3.7-3.6 0-2.6 1.4-5.7 8.3-5.7 1.7.1 1.8.3 2.1.3zM386 45.6c2.7-15.6 3.3-28.3 9.8-26 1.1-6 2.3-8.4 3.5-10.9 0 0-.6-.1-1.8-.1-4.2 0-7.4 5.8-7.4 5.8L391 9h-8.8l-5.9 36.6h9.7z"/></svg>