<svg xmlns="http://www.w3.org/2000/svg" viewBox="249 -235 514 514"><path fill="#E0E0E0" d="M600.1 77.8l-53-53c-7.1 3.5-14.1 7.1-16.8 10.6-7.9 7.1-7.1 21.2-7.1 30.9l-5.3 5.3 44.1 44.1c23.8 23.8 53 66.2 75 99.8l.9-.9c0-19.4 9.7-38.8 27.4-51.2 9.7-7.1 22.1-9.7 33.5-10.6l.9-.9c-33.4-21.1-75.8-50.2-99.6-74.1M461.5 4.5c9.7.9 23.8.9 30.9-6.2 3.5-3.5 7.1-9.7 10.6-16.8l-53-53c-30-30-55.6-61.8-75-99.8l-.9.9c0 19.4-9.7 38.8-27.4 51.2-9.7 5.3-21.2 8.8-33.5 8.8l-.9.9c38 19.4 69.7 45 99.8 75l44.1 44.1 5.3-5.1z"/><path fill="#C3C7CB" d="M306.1-233.8l27.4 47.7-1.8 4.4c-7.1 15-23 23.8-38.8 23h-4.4l-27.4-46.8c-17.7 26.5-12.4 64.4 15.9 84.7 20.3 15 48.6 15 69.7.9 33.5-23 36.2-68 9.7-95.3-14.1-14.2-31.8-20.4-50.3-18.6M706 276.4l-27.4-47.6 1.8-4.4c7.1-15 23-23.8 38.8-23h4.4l26.5 46.8c17.7-26.5 12.4-64.4-15.9-84.7-20.3-15-48.6-15-69.7-.9-33.5 23-36.2 68-9.7 95.3 15 14.1 33.5 20.3 51.2 18.5"/><path fill="#E15649" d="M572.7 17.8L510-44.9l181.8-181c10.6-10.6 28.2-10.6 38.8 0l23.8 23.8c10.6 10.6 10.6 28.2 0 38.8L572.7 17.8zm-74.2 74.1l-62.7-62.7 25.6-24.7 61.8 61.8-24.7 25.6z"/><path fill="#BC342E" d="M523.3 66.3c-.9-9.7 0-23.8 7.1-30.9s32.7-18.5 42.4-17.7L510.1-45c.9 9.7-9.7 35.3-17.7 42.4-6.2 8-21.2 7.1-30.9 7.1l61.8 61.8z"/><path fill="#C3C7CB" d="M254.9 235.8l-5.3 42.4 43.3-6.2 26.5-38.8-25.7-24.7-38.8 27.3z"/><path fill="#E0E0E0" d="M454.4 48.7L293.7 209.4l24.7 24.7L479.1 73.4l-24.7-24.7z"/><path fill="#BC342E" d="M567.4-30.8c-2.6 0-4.4-.9-6.2-2.6-3.5-3.5-3.5-8.8 0-12.4l150.1-150.1c3.5-3.5 8.8-3.5 12.4 0 3.5 3.5 3.5 8.8 0 12.4L573.6-33.4c-1.8 1.8-3.6 2.6-6.2 2.6"/><path fill="#C3C7CB" d="M593.9 121.1l-13.3 13.2c3.5 4.4 7.1 8.8 10.6 14.1 0 0 .9 0 .9-.9l14.1-14.1c3.5-3.5 3.5-8.8 0-12.4-3.5-3.5-8.8-3.5-12.3.1m24.7 25.6l-16.8 16.8c3.5 4.4 7.1 9.7 10.6 14.1l.9-.9L631 159c3.5-3.5 3.5-8.8 0-12.4-3.6-3.5-8.9-3.5-12.4.1"/></svg>