<svg xmlns="http://www.w3.org/2000/svg" viewBox="0 0 512 512"><path fill="#fff" d="M430.038 114.969a7.998 7.998 0 0 0-11.253-1.172 7.999 7.999 0 0 0-1.172 11.252C447.526 161.919 464 208.426 464 256c0 55.567-21.635 107.803-60.919 147.085C363.797 442.367 311.563 464 256 464c-51.26 0-100.505-18.807-138.663-52.956a8 8 0 0 0-10.67 11.922C147.763 459.745 200.797 480 256 480c59.837 0 116.089-23.297 158.394-65.601C456.701 372.095 480 315.84 480 256c0-51.233-17.744-101.319-49.962-141.031zM48 256c0-114.691 93.309-208 208-208 51.26 0 100.504 18.808 138.662 52.959a8 8 0 0 0 11.296-.625 8 8 0 0 0-.625-11.296C364.237 52.256 311.203 32 256 32c-59.829 0-116.08 23.301-158.389 65.611C55.301 139.921 32 196.171 32 256c0 51.239 17.744 101.328 49.963 141.038a7.983 7.983 0 0 0 6.217 2.96 8 8 0 0 0 6.208-13.041C64.474 350.088 48 303.58 48 256z"/></svg>