<svg xmlns="http://www.w3.org/2000/svg" viewBox="0 0 512 512"><path fill="#fff" d="M437.022 74.984C388.67 26.63 324.381 0 256 0 187.624 0 123.338 26.63 74.984 74.984S0 187.624 0 256c0 68.388 26.63 132.678 74.984 181.028C123.335 485.375 187.621 512 256 512c68.385 0 132.673-26.625 181.021-74.972C485.372 388.679 512 324.389 512 256c0-68.377-26.628-132.664-74.978-181.016zm-11.314 350.73C380.381 471.039 320.111 496 256 496c-64.106 0-124.374-24.961-169.703-70.286C40.965 380.386 16 320.113 16 256c0-64.102 24.965-124.37 70.297-169.703C131.63 40.965 191.898 16 256 16c64.108 0 124.378 24.965 169.708 70.297C471.037 131.628 496 191.896 496 256c0 64.115-24.963 124.387-70.292 169.714z"/><path fill="#fff" d="M393.81 199.21c-.297-2.237-3.165-22.123-12.481-32.244-11.127-12.384-23.789-13.666-29.877-14.283-.531-.054-1.019-.103-1.458-.156a7.27 7.27 0 0 0-.359-.036c-36.754-2.849-92.235-2.882-92.792-2.882h-.124c-.556 0-56.038.033-92.784 2.882a7.15 7.15 0 0 0-.359.036c-.438.054-.926.103-1.458.156-6.086.616-18.742 1.897-29.876 14.282-9.308 10.117-12.184 30.004-12.481 32.242l-.017.133c-.11.947-2.689 23.462-2.689 46.399v21.314c0 22.953 2.579 45.46 2.689 46.407l.016.131c.297 2.237 3.166 22.118 12.486 32.224 10.304 11.453 23.351 13.129 30.365 14.031 1.235.159 2.302.296 3.029.441.248.049.498.087.75.113 21.2 2.171 87.505 2.839 90.409 2.867.557-.001 56.085-.132 92.828-2.947a6.77 6.77 0 0 0 .405-.042c.452-.058.957-.109 1.507-.167 6.074-.635 18.705-1.955 29.789-14.292 9.309-10.104 12.184-29.979 12.481-32.216l.017-.134c.11-.947 2.688-23.461 2.689-46.406v-21.315c0-22.945-2.579-45.459-2.689-46.407l-.016-.131zm-13.296 67.853c0 21.399-2.42 43.136-2.575 44.499-.602 4.445-3.392 18.033-8.397 23.436l-.089.098c-6.977 7.786-14.56 8.578-19.578 9.103-.6.063-1.155.122-1.661.184-36.146 2.754-90.895 2.884-91.352 2.886-.678-.007-67.638-.68-88.505-2.75-1.154-.212-2.398-.372-3.707-.541-5.992-.77-14.199-1.825-20.538-8.893l-.09-.099c-4.448-4.797-7.503-16.895-8.394-23.436-.158-1.395-2.575-23.106-2.575-44.496V245.74c0-21.4 2.422-43.145 2.575-44.493.602-4.449 3.394-18.048 8.401-23.464l.082-.09c7.008-7.814 14.596-8.582 19.617-9.091.58-.059 1.118-.114 1.61-.172 36.127-2.788 90.83-2.821 91.379-2.821h.124c.549 0 55.252.033 91.387 2.821.491.058 1.03.113 1.61.172 5.023.508 12.614 1.277 19.614 9.088l.086.095c4.45 4.808 7.506 16.91 8.4 23.466.158 1.393 2.575 23.113 2.575 44.496l.001 21.316z"/><path fill="#fff" d="M310.355 249.579l-82.356-49.415a8 8 0 1 0-12.117 6.859v98.829a7.997 7.997 0 0 0 8 8 7.996 7.996 0 0 0 4.116-1.14l82.356-49.415c2.409-1.446 3.884-4.05 3.884-6.86s-1.473-5.413-3.883-6.858zm-78.472 42.145v-70.57l58.808 35.285-58.808 35.285z"/></svg>