<svg xmlns="http://www.w3.org/2000/svg" viewBox="20.2 -6.2 56 56"><path fill="#FFF" d="M22.7 12.5h51.2v19.6H22.7z"/><path fill="#0059A4" d="M74.8 3.8H21.7c-.8 0-1.4.6-1.4 1.4v33.1c0 .8.6 1.4 1.4 1.4h53.1c.8 0 1.4-.6 1.4-1.4V5.2c0-.8-.6-1.4-1.4-1.4zM24.6 14.6h6c.8 0 1.5.3 1.7 1.1l1.3 6.2c-1.3-3.2-4.4-5.9-9-7.1-.1.1 0-.2 0-.2zm7.2 14.2l-3.5-11.7c2.5 1.6 4.6 4.1 5.3 5.8l.4 1.4 3.8-9.6H42l-6.1 14c0 .1-4.1.1-4.1.1zm13.2 0h-3.9l2.4-14h3.9l-2.4 14zm6.7.2c-1.7 0-3.4-.4-4.3-.7l.5-3.1.5.2c1.3.5 2.1.7 3.6.7 1.1 0 2.3-.4 2.3-1.4 0-.6-.5-1.1-2-1.7-1.5-.7-3.4-1.8-3.4-3.8 0-2.7 2.7-4.6 6.5-4.6 1.5 0 2.7.3 3.5.6l-.5 3-.3-.2c-.9-.4-1.9-.6-2.9-.5-1.5 0-2.2.6-2.2 1.2 0 .7.8 1.1 2.2 1.7 2.2 1 3.3 2.2 3.2 3.8 0 2.9-2.7 4.8-6.7 4.8zm16.7-.2s-.4-1.6-.5-2.1H63c-.1.4-.8 2.1-.8 2.1h-4l5.7-12.9c.4-.9 1.1-1.2 2-1.2h3l3.1 14c0 .1-3.6.1-3.6.1z"/><path fill="#0059A4" d="M66.3 18.5c-.2.5-.5 1.4-.5 1.4l-1.5 4h3.2l-.9-4.1-.3-1.3z"/></svg>