<svg xmlns="http://www.w3.org/2000/svg" viewBox="266.2 -252.2 548 548"><path fill="#fff" d="M811.3 147.6c-.7-1.4-1.3-2.6-1.9-3.6-9.5-17.1-27.7-38.1-54.5-62.9l-.6-.6-.3-.3-.3-.3h-.3c-12.2-11.6-19.9-19.4-23.1-23.4-5.9-7.6-7.2-15.3-4-23.1 2.3-5.9 10.8-18.3 25.7-37.3 7.8-10.1 14-18.1 18.5-24.2 32.9-43.7 47.2-71.6 42.8-83.7l-1.7-2.8c-1.1-1.7-4.1-3.3-8.8-4.7-4.8-1.4-10.8-1.7-18.3-.7l-82.2.6c-1.3-.5-3.2-.4-5.7.1l-3.7.9-1.4.7-1.1.9c-1 .6-2 1.6-3.1 3s-2.1 3.1-2.8 5c-8.9 23-19.1 44.3-30.5 64.1-7 11.8-13.5 22-19.4 30.6-5.9 8.6-10.8 15-14.8 19.1-4 4.1-7.6 7.4-10.8 9.8-3.2 2.5-5.7 3.5-7.4 3.1-1.7-.4-3.3-.8-4.9-1.1-2.7-1.7-4.8-4-6.4-7-1.6-2.9-2.7-6.6-3.3-11.1-.6-4.5-.9-8.3-1-11.5-.1-3.2 0-7.8.1-13.7.2-5.9.3-9.9.3-12 0-7.2.1-15 .4-23.5.3-8.4.5-15.1.7-20.1.2-4.9.3-10.2.3-15.7s-.3-9.8-1-13c-.7-3.1-1.7-6.2-3-9.1-1.3-2.9-3.3-5.2-5.8-6.8-2.6-1.6-5.8-2.9-9.6-3.8-10.1-2.3-22.9-3.5-38.5-3.7-35.4-.4-58.1 1.9-68.2 6.8-4 2.1-7.6 4.9-10.8 8.5-3.4 4.2-3.9 6.5-1.4 6.8 11.4 1.7 19.5 5.8 24.3 12.2l1.7 3.4c1.3 2.5 2.7 6.8 4 13.1 1.3 6.3 2.2 13.2 2.6 20.8.9 13.9.9 25.7 0 35.6-1 9.9-1.9 17.6-2.7 23.1s-2.1 10-3.9 13.4c-1.7 3.4-2.9 5.5-3.4 6.3-.6.8-1 1.2-1.4 1.4-2.5.9-5.1 1.4-7.7 1.4-2.7 0-5.9-1.3-9.7-4-3.8-2.7-7.7-6.3-11.8-11-4.1-4.7-8.7-11.2-13.8-19.5-5.1-8.4-10.5-18.2-16-29.6l-4.6-8.3c-2.9-5.3-6.8-13-11.7-23.2-4.9-10.2-9.3-20-13.1-29.5-1.5-4-3.8-7-6.8-9.1l-1.4-.9c-.9-.8-2.5-1.6-4.6-2.4-2.1-.9-4.3-1.5-6.6-1.8l-78.2.6c-8 0-13.4 1.8-16.3 5.4l-1.1 1.7c-.6 1-.9 2.5-.9 4.6 0 2.1.6 4.7 1.7 7.7 11.4 26.8 23.8 52.6 37.2 77.4s25.1 44.9 35 60.1c9.9 15.2 20 29.5 30.2 43 10.3 13.5 17.1 22.1 20.4 25.9 3.3 3.8 5.9 6.6 7.8 8.5l7.1 6.8c4.6 4.6 11.3 10 20.1 16.4 8.8 6.4 18.6 12.6 29.4 18.8 10.7 6.2 23.3 11.2 37.5 15.1 14.3 3.9 28.2 5.5 41.7 4.7h32.8c6.7-.6 11.7-2.7 15.1-6.3l1.1-1.4c.8-1.1 1.5-2.9 2.1-5.3.7-2.4 1-5 1-7.8-.2-8.2.4-15.5 1.9-22.1 1.4-6.5 3-11.5 4.9-14.8 1.8-3.3 3.9-6.1 6.1-8.4 2.3-2.3 3.9-3.7 4.9-4.1.9-.5 1.7-.8 2.3-1 4.6-1.5 9.9 0 16.1 4.4 6.2 4.5 12 10 17.4 16.5 5.4 6.6 11.9 13.9 19.5 22.1 7.6 8.2 14.3 14.2 20 18.2l5.7 3.4c3.8 2.3 8.8 4.4 14.8 6.3 6.1 1.9 11.4 2.4 16 1.4l73-1.1c7.2 0 12.8-1.2 16.8-3.6 4-2.4 6.4-5 7.1-7.8.8-2.8.8-6.1.1-9.7-.6-3.4-1.3-5.9-1.9-7.3z"/></svg>