<svg xmlns="http://www.w3.org/2000/svg" viewBox="26.5 -14.5 72 72"><title>android_maps</title><path fill="#DBDBDB" d="M80.6-11H58.1v65.2h22.5c7.9 0 14.5-6.5 14.5-14.5V3.4c0-7.9-6.5-14.4-14.5-14.4z"/><path fill="#FFF" d="M92.4 19.8L74-11.1H44.3c-7.9 0-14.5 6.8-14.5 14.8V40c0 7.9 6.5 14.1 14.5 14.1H74l18.4-30.6c.6-1.1.6-2.7 0-3.7z"/><path fill="#DBDBDB" d="M80.6-11H44.3c-7.9 0-14.5 6.8-14.5 14.8v36.3c0 7.9 6.5 14.1 14.5 14.1h36.3c7.9 0 14.5-6.2 14.5-14.1V3.8c0-8.1-6.5-14.8-14.5-14.8zM94 40c0 7.4-6 13-13.4 13H44.3c-7.4 0-13.4-5.7-13.4-13V3.7c0-7.4 6-13.7 13.4-13.7h36.4C88.1-10 94-3.7 94 3.7V40z"/><path fill="#C00" d="M58.7 28.4l14.7-14.7c0 9.8-7.4 17.2-19.6 34.2l4.9-19.5z"/><path fill="#F00" d="M58.7-.9c8.1 0 14.7 6.6 14.7 14.7s-6.5 14.7-14.7 14.7C50.6 28.5 44 22 44 13.8S50.7-.9 58.7-.9z"/><path fill="#F6F5F3" d="M58.7 7.9c3.3 0 5.9 2.6 5.9 5.9s-2.6 5.9-5.9 5.9c-3.3 0-5.9-2.6-5.9-5.9s2.6-5.9 5.9-5.9z"/></svg>